<svg xmlns="http://www.w3.org/2000/svg" viewBox="0 0 44 44"><defs><style>.cls-1{fill:#035644;}</style></defs><g id="Layer_2" data-name="Layer 2"><g id="full-screen"><g id="Group_1933" data-name="Group 1933"><g id="Group_1932" data-name="Group 1932"><path id="Path_2710" data-name="Path 2710" class="cls-1" d="M11,2.75V0H1.38A1.38,1.38,0,0,0,0,1.38V11H2.75V4.69L15.52,17.46l1.94-1.94L4.69,2.75Z"/><path id="Path_2711" data-name="Path 2711" class="cls-1" d="M42.63,0H33V2.75h6.31L26.54,15.52l1.94,1.94L41.25,4.69V11H44V1.38A1.37,1.37,0,0,0,42.63,0Z"/><path id="Path_2712" data-name="Path 2712" class="cls-1" d="M41.25,39.31,28.48,26.54l-1.94,1.94L39.31,41.25H33V44h9.63A1.37,1.37,0,0,0,44,42.63V33H41.25Z"/><path id="Path_2713" data-name="Path 2713" class="cls-1" d="M15.52,26.52,2.75,39.31V33H0v9.63A1.37,1.37,0,0,0,1.38,44H11V41.25H4.69L17.46,28.48Z"/></g></g></g></g></svg>