<svg xmlns="http://www.w3.org/2000/svg" width="14.197" height="14.197" viewBox="0 0 14.197 14.197">
  <path id="Path_1743" data-name="Path 1743" d="M13.058,9.319a8.062,8.062,0,0,1-2.531-.4A1.157,1.157,0,0,0,9.4,9.153L7.8,10.358A8.822,8.822,0,0,1,3.839,6.392l1.17-1.555A1.147,1.147,0,0,0,5.29,3.675a8.074,8.074,0,0,1-.4-2.536A1.14,1.14,0,0,0,3.746,0H1.139A1.141,1.141,0,0,0,0,1.139,13.073,13.073,0,0,0,13.058,14.2,1.141,1.141,0,0,0,14.2,13.058v-2.6a1.141,1.141,0,0,0-1.139-1.139" fill="#fff"/>
</svg>
