<svg xmlns="http://www.w3.org/2000/svg" width="31" height="31" viewBox="0 0 31 31">
  <g id="Group_1893" data-name="Group 1893" transform="translate(-629 -3714)">
    <g id="Ellipse_318" data-name="Ellipse 318" transform="translate(642 3714)" fill="#035644" stroke="#035644" stroke-width="1">
      <circle cx="2.5" cy="2.5" r="2.5" stroke="none"/>
      <circle cx="2.5" cy="2.5" r="2" fill="none"/>
    </g>
    <g id="Ellipse_326" data-name="Ellipse 326" transform="translate(637 3722)" fill="#035644" stroke="#035644" stroke-width="1">
      <circle cx="7.5" cy="7.5" r="7.5" stroke="none"/>
      <circle cx="7.5" cy="7.5" r="7" fill="none"/>
    </g>
    <g id="Ellipse_319" data-name="Ellipse 319" transform="translate(642 3740)" fill="#035644" stroke="#035644" stroke-width="1">
      <circle cx="2.5" cy="2.5" r="2.5" stroke="none"/>
      <circle cx="2.5" cy="2.5" r="2" fill="none"/>
    </g>
    <g id="Ellipse_320" data-name="Ellipse 320" transform="translate(660 3727) rotate(90)" fill="#035644" stroke="#035644" stroke-width="1">
      <circle cx="2.5" cy="2.5" r="2.5" stroke="none"/>
      <circle cx="2.5" cy="2.5" r="2" fill="none"/>
    </g>
    <g id="Ellipse_321" data-name="Ellipse 321" transform="translate(634 3727) rotate(90)" fill="#035644" stroke="#035644" stroke-width="1">
      <circle cx="2.5" cy="2.5" r="2.5" stroke="none"/>
      <circle cx="2.5" cy="2.5" r="2" fill="none"/>
    </g>
    <g id="Ellipse_322" data-name="Ellipse 322" transform="translate(653.692 3716.771) rotate(45)" fill="#035644" stroke="#035644" stroke-width="1">
      <circle cx="2.5" cy="2.5" r="2.5" stroke="none"/>
      <circle cx="2.5" cy="2.5" r="2" fill="none"/>
    </g>
    <g id="Ellipse_323" data-name="Ellipse 323" transform="translate(635.308 3735.156) rotate(45)" fill="#035644" stroke="#035644" stroke-width="1">
      <circle cx="2.5" cy="2.5" r="2.5" stroke="none"/>
      <circle cx="2.5" cy="2.5" r="2" fill="none"/>
    </g>
    <g id="Ellipse_324" data-name="Ellipse 324" transform="translate(631.772 3720.308) rotate(-45)" fill="#035644" stroke="#035644" stroke-width="1">
      <circle cx="2.5" cy="2.5" r="2.5" stroke="none"/>
      <circle cx="2.5" cy="2.5" r="2" fill="none"/>
    </g>
    <g id="Ellipse_325" data-name="Ellipse 325" transform="translate(650.157 3738.692) rotate(-45)" fill="#035644" stroke="#035644" stroke-width="1">
      <circle cx="2.5" cy="2.5" r="2.5" stroke="none"/>
      <circle cx="2.5" cy="2.5" r="2" fill="none"/>
    </g>
  </g>
</svg>
