<svg xmlns="http://www.w3.org/2000/svg" width="28.284" height="24.676" viewBox="0 0 28.284 24.676">
  <g id="Group_1895" data-name="Group 1895" transform="translate(-715.722 -3715.258)">
    <g id="Ellipse_343" data-name="Ellipse 343" transform="translate(722.793 3722.258) rotate(-45)" fill="#035644" stroke="#035644" stroke-width="1">
      <circle cx="2.5" cy="2.5" r="2.5" stroke="none"/>
      <circle cx="2.5" cy="2.5" r="2" fill="none"/>
    </g>
    <g id="Ellipse_344" data-name="Ellipse 344" transform="translate(729.864 3722.258) rotate(-45)" fill="#035644" stroke="#035644" stroke-width="1">
      <circle cx="2.5" cy="2.5" r="2.5" stroke="none"/>
      <circle cx="2.5" cy="2.5" r="2" fill="none"/>
    </g>
    <g id="Ellipse_345" data-name="Ellipse 345" transform="translate(736.935 3722.258) rotate(-45)" fill="#035644" stroke="#035644" stroke-width="1">
      <circle cx="2.5" cy="2.5" r="2.5" stroke="none"/>
      <circle cx="2.5" cy="2.5" r="2" fill="none"/>
    </g>
    <g id="Ellipse_336" data-name="Ellipse 336" transform="translate(715.722 3736.398) rotate(-45)" fill="#035644" stroke="#035644" stroke-width="1">
      <circle cx="2.5" cy="2.5" r="2.5" stroke="none"/>
      <circle cx="2.5" cy="2.5" r="2" fill="none"/>
    </g>
    <g id="Ellipse_342" data-name="Ellipse 342" transform="translate(715.722 3722.258) rotate(-45)" fill="#035644" stroke="#035644" stroke-width="1">
      <circle cx="2.5" cy="2.5" r="2.5" stroke="none"/>
      <circle cx="2.5" cy="2.5" r="2" fill="none"/>
    </g>
    <g id="Ellipse_337" data-name="Ellipse 337" transform="translate(722.793 3736.398) rotate(-45)" fill="#035644" stroke="#035644" stroke-width="1">
      <circle cx="2.5" cy="2.5" r="2.5" stroke="none"/>
      <circle cx="2.5" cy="2.5" r="2" fill="none"/>
    </g>
    <g id="Ellipse_338" data-name="Ellipse 338" transform="translate(729.864 3736.398) rotate(-45)" fill="#035644" stroke="#035644" stroke-width="1">
      <circle cx="2.5" cy="2.5" r="2.5" stroke="none"/>
      <circle cx="2.5" cy="2.5" r="2" fill="none"/>
    </g>
    <g id="Ellipse_346" data-name="Ellipse 346" transform="translate(736.935 3736.398) rotate(-45)" fill="#035644" stroke="#035644" stroke-width="1">
      <circle cx="2.5" cy="2.5" r="2.5" stroke="none"/>
      <circle cx="2.5" cy="2.5" r="2" fill="none"/>
    </g>
    <path id="Path_2692" data-name="Path 2692" d="M716.989,3736.4H742.9" transform="translate(0 -6)" fill="none" stroke="#035644" stroke-width="2"/>
    <path id="Path_2693" data-name="Path 2693" d="M716.989,3736.4H742.9" transform="translate(0 -20.141)" fill="none" stroke="#035644" stroke-width="2"/>
  </g>
</svg>
