<svg xmlns="http://www.w3.org/2000/svg" width="52.787" height="33.212" viewBox="0 0 52.787 33.212">
  <g id="Group_1896" data-name="Group 1896" transform="translate(-707.006 -3714.722)">
    <g id="Ellipse_343" data-name="Ellipse 343" transform="translate(722.793 3718.258) rotate(-45)" fill="#035644" stroke="#035644" stroke-width="1">
      <circle cx="2.5" cy="2.5" r="2.5" stroke="none"/>
      <circle cx="2.5" cy="2.5" r="2" fill="none"/>
    </g>
    <g id="Ellipse_344" data-name="Ellipse 344" transform="translate(729.864 3718.258) rotate(-45)" fill="#035644" stroke="#035644" stroke-width="1">
      <circle cx="2.5" cy="2.5" r="2.5" stroke="none"/>
      <circle cx="2.5" cy="2.5" r="2" fill="none"/>
    </g>
    <g id="Ellipse_345" data-name="Ellipse 345" transform="translate(736.935 3718.258) rotate(-45)" fill="#035644" stroke="#035644" stroke-width="1">
      <circle cx="2.5" cy="2.5" r="2.5" stroke="none"/>
      <circle cx="2.5" cy="2.5" r="2" fill="none"/>
    </g>
    <g id="Ellipse_347" data-name="Ellipse 347" transform="translate(743.935 3718.258) rotate(-45)" fill="#035644" stroke="#035644" stroke-width="1">
      <circle cx="2.5" cy="2.5" r="2.5" stroke="none"/>
      <circle cx="2.5" cy="2.5" r="2" fill="none"/>
    </g>
    <g id="Ellipse_336" data-name="Ellipse 336" transform="translate(715.722 3744.398) rotate(-45)" fill="#035644" stroke="#035644" stroke-width="1">
      <circle cx="2.5" cy="2.5" r="2.5" stroke="none"/>
      <circle cx="2.5" cy="2.5" r="2" fill="none"/>
    </g>
    <g id="Ellipse_349" data-name="Ellipse 349" transform="translate(707.006 3731.398) rotate(-45)" fill="#035644" stroke="#035644" stroke-width="1">
      <circle cx="2.5" cy="2.5" r="2.5" stroke="none"/>
      <circle cx="2.5" cy="2.5" r="2" fill="none"/>
    </g>
    <g id="Ellipse_350" data-name="Ellipse 350" transform="translate(752.722 3731.398) rotate(-45)" fill="#035644" stroke="#035644" stroke-width="1">
      <circle cx="2.5" cy="2.5" r="2.5" stroke="none"/>
      <circle cx="2.5" cy="2.5" r="2" fill="none"/>
    </g>
    <g id="Ellipse_342" data-name="Ellipse 342" transform="translate(715.722 3718.258) rotate(-45)" fill="#035644" stroke="#035644" stroke-width="1">
      <circle cx="2.5" cy="2.5" r="2.5" stroke="none"/>
      <circle cx="2.5" cy="2.5" r="2" fill="none"/>
    </g>
    <g id="Ellipse_337" data-name="Ellipse 337" transform="translate(722.793 3744.398) rotate(-45)" fill="#035644" stroke="#035644" stroke-width="1">
      <circle cx="2.5" cy="2.5" r="2.5" stroke="none"/>
      <circle cx="2.5" cy="2.5" r="2" fill="none"/>
    </g>
    <g id="Ellipse_338" data-name="Ellipse 338" transform="translate(729.864 3744.398) rotate(-45)" fill="#035644" stroke="#035644" stroke-width="1">
      <circle cx="2.5" cy="2.5" r="2.5" stroke="none"/>
      <circle cx="2.5" cy="2.5" r="2" fill="none"/>
    </g>
    <g id="Ellipse_346" data-name="Ellipse 346" transform="translate(736.935 3744.398) rotate(-45)" fill="#035644" stroke="#035644" stroke-width="1">
      <circle cx="2.5" cy="2.5" r="2.5" stroke="none"/>
      <circle cx="2.5" cy="2.5" r="2" fill="none"/>
    </g>
    <g id="Ellipse_348" data-name="Ellipse 348" transform="translate(743.935 3744.398) rotate(-45)" fill="#035644" stroke="#035644" stroke-width="1">
      <circle cx="2.5" cy="2.5" r="2.5" stroke="none"/>
      <circle cx="2.5" cy="2.5" r="2" fill="none"/>
    </g>
    <g id="Rectangle_2028" data-name="Rectangle 2028" transform="translate(716.899 3725.398)" fill="none" stroke="#035644" stroke-width="2">
      <rect width="33" height="12" stroke="none"/>
      <rect x="1" y="1" width="31" height="10" fill="none"/>
    </g>
  </g>
</svg>
