<svg xmlns="http://www.w3.org/2000/svg" width="41" height="17" viewBox="0 0 41 17">
  <g id="Group_1892" data-name="Group 1892" transform="translate(-651 -3595)">
    <g id="Ellipse_309" data-name="Ellipse 309" transform="translate(663 3601)" fill="#035644" stroke="#035644" stroke-width="1">
      <circle cx="2.5" cy="2.5" r="2.5" stroke="none"/>
      <circle cx="2.5" cy="2.5" r="2" fill="none"/>
    </g>
    <g id="Ellipse_315" data-name="Ellipse 315" transform="translate(687 3601)" fill="#035644" stroke="#035644" stroke-width="1">
      <circle cx="2.5" cy="2.5" r="2.5" stroke="none"/>
      <circle cx="2.5" cy="2.5" r="2" fill="none"/>
    </g>
    <g id="Ellipse_311" data-name="Ellipse 311" transform="translate(651 3601)" fill="#035644" stroke="#035644" stroke-width="1">
      <circle cx="2.5" cy="2.5" r="2.5" stroke="none"/>
      <circle cx="2.5" cy="2.5" r="2" fill="none"/>
    </g>
    <g id="Ellipse_314" data-name="Ellipse 314" transform="translate(675 3601)" fill="#035644" stroke="#035644" stroke-width="1">
      <circle cx="2.5" cy="2.5" r="2.5" stroke="none"/>
      <circle cx="2.5" cy="2.5" r="2" fill="none"/>
    </g>
    <g id="Ellipse_310" data-name="Ellipse 310" transform="translate(657 3595)" fill="#035644" stroke="#035644" stroke-width="1">
      <circle cx="2.5" cy="2.5" r="2.5" stroke="none"/>
      <circle cx="2.5" cy="2.5" r="2" fill="none"/>
    </g>
    <g id="Ellipse_313" data-name="Ellipse 313" transform="translate(681 3595)" fill="#035644" stroke="#035644" stroke-width="1">
      <circle cx="2.5" cy="2.5" r="2.5" stroke="none"/>
      <circle cx="2.5" cy="2.5" r="2" fill="none"/>
    </g>
    <g id="Ellipse_312" data-name="Ellipse 312" transform="translate(657 3607)" fill="#035644" stroke="#035644" stroke-width="1">
      <circle cx="2.5" cy="2.5" r="2.5" stroke="none"/>
      <circle cx="2.5" cy="2.5" r="2" fill="none"/>
    </g>
    <g id="Ellipse_316" data-name="Ellipse 316" transform="translate(681 3607)" fill="#035644" stroke="#035644" stroke-width="1">
      <circle cx="2.5" cy="2.5" r="2.5" stroke="none"/>
      <circle cx="2.5" cy="2.5" r="2" fill="none"/>
    </g>
    <g id="Ellipse_317" data-name="Ellipse 317" transform="translate(669 3607)" fill="#035644" stroke="#035644" stroke-width="1">
      <circle cx="2.5" cy="2.5" r="2.5" stroke="none"/>
      <circle cx="2.5" cy="2.5" r="2" fill="none"/>
    </g>
  </g>
</svg>
