<svg xmlns="http://www.w3.org/2000/svg" width="56.441" height="46.323" viewBox="0 0 56.441 46.323">
  <g id="Group_1888" data-name="Group 1888" transform="translate(-1014.929 -1159.817)">
    <path id="Path_2211" data-name="Path 2211" d="M51.052,45.824H4.389A4.895,4.895,0,0,1-.5,40.935V4.389A4.891,4.891,0,0,1,7.11.327q.036.024.07.05a1,1,0,0,1,.381.716q0,.036,0,.073s0,.009,0,.013V37.71A1,1,0,0,1,6,38.539a2.889,2.889,0,1,0-1.614,5.286H51.052a2.89,2.89,0,1,0-1.6-5.292,1,1,0,0,1-1.57-.821s0-.01,0-.014V1.164a1,1,0,0,1,.44-.829,4.891,4.891,0,0,1,7.623,4.053V40.935A4.895,4.895,0,0,1,51.052,45.824ZM4.389,1.5A2.892,2.892,0,0,0,1.5,4.389v32.6a4.89,4.89,0,0,1,4.063-.805V1.748A2.884,2.884,0,0,0,4.389,1.5ZM51.052,36.045a4.863,4.863,0,0,1,2.889.947V4.389a2.892,2.892,0,0,0-4.063-2.64V36.188A4.892,4.892,0,0,1,51.052,36.045Z" transform="translate(1015.429 1160.316)" fill="#035644"/>
    <path id="Path_2212" data-name="Path 2212" d="M8.21,3.526H45.581v2H8.21Z" transform="translate(1016.254 1160.748)" fill="#035644"/>
    <path id="Path_2213" data-name="Path 2213" d="M26.442,36.2h-14v-1h-1V10.868h15v1h1v6h3.792v2H26.442v-1h-1v-6h-12V34.2h13Z" transform="translate(1016.707 1161.533)" fill="#035644"/>
    <path id="Path_2214" data-name="Path 2214" d="M34.42,17.189h4.666v1h1v17.33h-15v-1h-1V23.213h2V33.519h12V19.189H34.42Z" transform="translate(1018.061 1162.211)" fill="#035644"/>
    <path id="Path_2215" data-name="Path 2215" d="M25.18,27.264h3.5v2h-3.5Z" transform="translate(1018.07 1163.289)" fill="#035644"/>
    <path id="Path_2216" data-name="Path 2216" d="M20.96,28.1H12.445v-2H19.96V19.13h2V27.1h-1Z" transform="translate(1016.707 1162.311)" fill="#035644"/>
    <path id="Path_2217" data-name="Path 2217" d="M29.417,22.4h9.205v2H29.417Z" transform="translate(1018.524 1162.768)" fill="#035644"/>
  </g>
</svg>
