<svg xmlns="http://www.w3.org/2000/svg" width="46.213" height="21.212" viewBox="0 0 46.213 21.212">
  <g id="Group_1894" data-name="Group 1894" transform="translate(-715.722 -3718.722)">
    <g id="Ellipse_327" data-name="Ellipse 327" transform="translate(747.793 3722.258) rotate(-45)" fill="#035644" stroke="#035644" stroke-width="1">
      <circle cx="2.5" cy="2.5" r="2.5" stroke="none"/>
      <circle cx="2.5" cy="2.5" r="2" fill="none"/>
    </g>
    <g id="Ellipse_343" data-name="Ellipse 343" transform="translate(722.793 3722.258) rotate(-45)" fill="#035644" stroke="#035644" stroke-width="1">
      <circle cx="2.5" cy="2.5" r="2.5" stroke="none"/>
      <circle cx="2.5" cy="2.5" r="2" fill="none"/>
    </g>
    <g id="Ellipse_331" data-name="Ellipse 331" transform="translate(754.864 3722.258) rotate(-45)" fill="#035644" stroke="#035644" stroke-width="1">
      <circle cx="2.5" cy="2.5" r="2.5" stroke="none"/>
      <circle cx="2.5" cy="2.5" r="2" fill="none"/>
    </g>
    <g id="Ellipse_344" data-name="Ellipse 344" transform="translate(729.864 3722.258) rotate(-45)" fill="#035644" stroke="#035644" stroke-width="1">
      <circle cx="2.5" cy="2.5" r="2.5" stroke="none"/>
      <circle cx="2.5" cy="2.5" r="2" fill="none"/>
    </g>
    <g id="Ellipse_328" data-name="Ellipse 328" transform="translate(740.722 3729.328) rotate(-45)" fill="#035644" stroke="#035644" stroke-width="1">
      <circle cx="2.5" cy="2.5" r="2.5" stroke="none"/>
      <circle cx="2.5" cy="2.5" r="2" fill="none"/>
    </g>
    <g id="Ellipse_341" data-name="Ellipse 341" transform="translate(715.722 3729.328) rotate(-45)" fill="#035644" stroke="#035644" stroke-width="1">
      <circle cx="2.5" cy="2.5" r="2.5" stroke="none"/>
      <circle cx="2.5" cy="2.5" r="2" fill="none"/>
    </g>
    <g id="Ellipse_333" data-name="Ellipse 333" transform="translate(740.722 3736.398) rotate(-45)" fill="#035644" stroke="#035644" stroke-width="1">
      <circle cx="2.5" cy="2.5" r="2.5" stroke="none"/>
      <circle cx="2.5" cy="2.5" r="2" fill="none"/>
    </g>
    <g id="Ellipse_336" data-name="Ellipse 336" transform="translate(715.722 3736.398) rotate(-45)" fill="#035644" stroke="#035644" stroke-width="1">
      <circle cx="2.5" cy="2.5" r="2.5" stroke="none"/>
      <circle cx="2.5" cy="2.5" r="2" fill="none"/>
    </g>
    <g id="Ellipse_329" data-name="Ellipse 329" transform="translate(740.722 3722.258) rotate(-45)" fill="#035644" stroke="#035644" stroke-width="1">
      <circle cx="2.5" cy="2.5" r="2.5" stroke="none"/>
      <circle cx="2.5" cy="2.5" r="2" fill="none"/>
    </g>
    <g id="Ellipse_342" data-name="Ellipse 342" transform="translate(715.722 3722.258) rotate(-45)" fill="#035644" stroke="#035644" stroke-width="1">
      <circle cx="2.5" cy="2.5" r="2.5" stroke="none"/>
      <circle cx="2.5" cy="2.5" r="2" fill="none"/>
    </g>
    <g id="Ellipse_330" data-name="Ellipse 330" transform="translate(747.793 3729.328) rotate(-45)" fill="#035644" stroke="#035644" stroke-width="1">
      <circle cx="2.5" cy="2.5" r="2.5" stroke="none"/>
      <circle cx="2.5" cy="2.5" r="2" fill="none"/>
    </g>
    <g id="Ellipse_340" data-name="Ellipse 340" transform="translate(722.793 3729.328) rotate(-45)" fill="#035644" stroke="#035644" stroke-width="1">
      <circle cx="2.5" cy="2.5" r="2.5" stroke="none"/>
      <circle cx="2.5" cy="2.5" r="2" fill="none"/>
    </g>
    <g id="Ellipse_334" data-name="Ellipse 334" transform="translate(747.793 3736.398) rotate(-45)" fill="#035644" stroke="#035644" stroke-width="1">
      <circle cx="2.5" cy="2.5" r="2.5" stroke="none"/>
      <circle cx="2.5" cy="2.5" r="2" fill="none"/>
    </g>
    <g id="Ellipse_337" data-name="Ellipse 337" transform="translate(722.793 3736.398) rotate(-45)" fill="#035644" stroke="#035644" stroke-width="1">
      <circle cx="2.5" cy="2.5" r="2.5" stroke="none"/>
      <circle cx="2.5" cy="2.5" r="2" fill="none"/>
    </g>
    <g id="Ellipse_332" data-name="Ellipse 332" transform="translate(754.864 3729.328) rotate(-45)" fill="#035644" stroke="#035644" stroke-width="1">
      <circle cx="2.5" cy="2.5" r="2.5" stroke="none"/>
      <circle cx="2.5" cy="2.5" r="2" fill="none"/>
    </g>
    <g id="Ellipse_339" data-name="Ellipse 339" transform="translate(729.864 3729.328) rotate(-45)" fill="#035644" stroke="#035644" stroke-width="1">
      <circle cx="2.5" cy="2.5" r="2.5" stroke="none"/>
      <circle cx="2.5" cy="2.5" r="2" fill="none"/>
    </g>
    <g id="Ellipse_335" data-name="Ellipse 335" transform="translate(754.864 3736.398) rotate(-45)" fill="#035644" stroke="#035644" stroke-width="1">
      <circle cx="2.5" cy="2.5" r="2.5" stroke="none"/>
      <circle cx="2.5" cy="2.5" r="2" fill="none"/>
    </g>
    <g id="Ellipse_338" data-name="Ellipse 338" transform="translate(729.864 3736.398) rotate(-45)" fill="#035644" stroke="#035644" stroke-width="1">
      <circle cx="2.5" cy="2.5" r="2.5" stroke="none"/>
      <circle cx="2.5" cy="2.5" r="2" fill="none"/>
    </g>
  </g>
</svg>
