<svg xmlns="http://www.w3.org/2000/svg" xmlns:xlink="http://www.w3.org/1999/xlink" width="348.04" height="199.55" viewBox="0 0 348.04 199.55">
  <defs>
    <linearGradient id="linear-gradient" x1="-79.851" y1="-96.487" x2="-80.423" y2="-97.743" gradientUnits="objectBoundingBox">
      <stop offset="0.07" stop-color="#d19526"/>
      <stop offset="0.1" stop-color="#d59c32"/>
      <stop offset="0.15" stop-color="#e0ae52"/>
      <stop offset="0.22" stop-color="#f0cc85"/>
      <stop offset="0.25" stop-color="#f8d99c"/>
      <stop offset="0.27" stop-color="#f7d58e"/>
      <stop offset="0.32" stop-color="#f4ca6c"/>
      <stop offset="0.38" stop-color="#f3c254"/>
      <stop offset="0.42" stop-color="#f1be45"/>
      <stop offset="0.46" stop-color="#f1bc40"/>
      <stop offset="0.61" stop-color="#e2b671"/>
      <stop offset="0.71" stop-color="#ecc685"/>
      <stop offset="0.83" stop-color="#f8d99c"/>
      <stop offset="0.86" stop-color="#f7d48d"/>
      <stop offset="0.92" stop-color="#f4c763"/>
      <stop offset="0.97" stop-color="#f2bf4a"/>
      <stop offset="1" stop-color="#f1bc40"/>
    </linearGradient>
    <linearGradient id="linear-gradient-2" x1="-81.437" y1="-98.005" x2="-81.812" y2="-99.052" gradientUnits="objectBoundingBox">
      <stop offset="0" stop-color="#f1bc40"/>
      <stop offset="0.09" stop-color="#e8b139"/>
      <stop offset="0.24" stop-color="#d19526"/>
      <stop offset="0.32" stop-color="#dba12e"/>
      <stop offset="0.45" stop-color="#f1bc40"/>
      <stop offset="0.47" stop-color="#f2c14f"/>
      <stop offset="0.53" stop-color="#f5ce79"/>
      <stop offset="0.58" stop-color="#f7d692"/>
      <stop offset="0.61" stop-color="#f8d99c"/>
      <stop offset="0.76" stop-color="#f1bc40"/>
      <stop offset="0.78" stop-color="#eeb83e"/>
      <stop offset="0.92" stop-color="#d99f2c"/>
      <stop offset="1" stop-color="#d19526"/>
    </linearGradient>
    <linearGradient id="linear-gradient-3" x1="-93.371" y1="-99.132" x2="-93.398" y2="-100.38" gradientUnits="objectBoundingBox">
      <stop offset="0.07" stop-color="#d19526"/>
      <stop offset="0.22" stop-color="#dba12e"/>
      <stop offset="0.45" stop-color="#f1bc40"/>
      <stop offset="0.48" stop-color="#f2c14f"/>
      <stop offset="0.58" stop-color="#f5ce79"/>
      <stop offset="0.65" stop-color="#f7d692"/>
      <stop offset="0.7" stop-color="#f8d99c"/>
      <stop offset="1" stop-color="#f1bc40"/>
    </linearGradient>
    <linearGradient id="linear-gradient-4" x1="-91.219" y1="-136.039" x2="-91.84" y2="-137.045" gradientUnits="objectBoundingBox">
      <stop offset="0.07" stop-color="#f1bc40"/>
      <stop offset="0.1" stop-color="#f2c04c"/>
      <stop offset="0.17" stop-color="#f4ca6c"/>
      <stop offset="0.25" stop-color="#f8d99c"/>
      <stop offset="0.27" stop-color="#f7d58e"/>
      <stop offset="0.32" stop-color="#f4ca6c"/>
      <stop offset="0.38" stop-color="#f3c254"/>
      <stop offset="0.42" stop-color="#f1be45"/>
      <stop offset="0.46" stop-color="#f1bc40"/>
      <stop offset="0.61" stop-color="#e2b671"/>
      <stop offset="0.71" stop-color="#ecc685"/>
      <stop offset="0.83" stop-color="#f8d99c"/>
      <stop offset="0.86" stop-color="#f7d48d"/>
      <stop offset="0.92" stop-color="#f4c763"/>
      <stop offset="0.97" stop-color="#f2bf4a"/>
      <stop offset="1" stop-color="#f1bc40"/>
    </linearGradient>
    <linearGradient id="linear-gradient-5" x1="-98.966" y1="-108.593" x2="-99.611" y2="-109.623" xlink:href="#linear-gradient-4"/>
    <linearGradient id="linear-gradient-6" x1="-109.263" y1="-119.558" x2="-108.366" y2="-118.041" gradientUnits="objectBoundingBox">
      <stop offset="0" stop-color="#d19526"/>
      <stop offset="0.1" stop-color="#daa02d"/>
      <stop offset="0.33" stop-color="#ebb53b"/>
      <stop offset="0.48" stop-color="#f1bc40"/>
      <stop offset="1" stop-color="#d19526"/>
    </linearGradient>
    <linearGradient id="linear-gradient-7" x1="-7753.846" y1="-3538.82" x2="-7711.864" y2="-3493.842" gradientUnits="objectBoundingBox">
      <stop offset="0.07" stop-color="#d19526"/>
      <stop offset="0.14" stop-color="#dba12e"/>
      <stop offset="0.25" stop-color="#f1bc40"/>
      <stop offset="0.32" stop-color="#e1a933"/>
      <stop offset="0.4" stop-color="#d59a29"/>
      <stop offset="0.46" stop-color="#d19526"/>
      <stop offset="0.83" stop-color="#f1bc40"/>
      <stop offset="0.85" stop-color="#eeb83e"/>
      <stop offset="0.94" stop-color="#d99f2c"/>
      <stop offset="1" stop-color="#d19526"/>
    </linearGradient>
    <linearGradient id="linear-gradient-8" x1="-7614.694" y1="-3499.077" x2="-7573.39" y2="-3454.522" xlink:href="#linear-gradient-7"/>
    <linearGradient id="linear-gradient-9" x1="-7613.908" y1="-3459.796" x2="-7572.604" y2="-3415.747" xlink:href="#linear-gradient-7"/>
    <linearGradient id="linear-gradient-10" x1="-7751.611" y1="-3459.442" x2="-7709.466" y2="-3415.283" xlink:href="#linear-gradient-7"/>
    <linearGradient id="linear-gradient-11" x1="-7007.987" y1="-3420.177" x2="-6969.947" y2="-3376.591" xlink:href="#linear-gradient-7"/>
    <linearGradient id="linear-gradient-12" x1="-6498.565" y1="-3457.398" x2="-6463.289" y2="-3413.334" xlink:href="#linear-gradient-7"/>
    <linearGradient id="linear-gradient-13" x1="-6039.375" y1="-3457.083" x2="-6006.475" y2="-3412.877" xlink:href="#linear-gradient-7"/>
    <linearGradient id="linear-gradient-14" x1="-5622.252" y1="-3454.544" x2="-5591.754" y2="-3410.555" xlink:href="#linear-gradient-7"/>
    <linearGradient id="linear-gradient-15" x1="-5302.939" y1="-3492.409" x2="-5274.135" y2="-3447.867" xlink:href="#linear-gradient-7"/>
    <linearGradient id="linear-gradient-16" x1="-4970.449" y1="-3571.255" x2="-4943.438" y2="-3525.694" xlink:href="#linear-gradient-7"/>
    <linearGradient id="linear-gradient-17" x1="-4656.216" y1="-3608.051" x2="-4630.89" y2="-3561.997" xlink:href="#linear-gradient-7"/>
    <linearGradient id="linear-gradient-18" x1="-4468.992" y1="-3702.294" x2="-4444.736" y2="-3655.13" xlink:href="#linear-gradient-7"/>
    <linearGradient id="linear-gradient-19" x1="-4209.964" y1="-3746.309" x2="-4187.084" y2="-3698.511" xlink:href="#linear-gradient-7"/>
    <linearGradient id="linear-gradient-20" x1="-4223.113" y1="-3837.67" x2="-4200.161" y2="-3788.707" xlink:href="#linear-gradient-7"/>
    <linearGradient id="linear-gradient-21" x1="-3915.108" y1="-3983.443" x2="-3893.857" y2="-3932.709" xlink:href="#linear-gradient-7"/>
    <linearGradient id="linear-gradient-22" x1="-3778.554" y1="-4140.778" x2="-3758.026" y2="-4087.988" xlink:href="#linear-gradient-7"/>
    <linearGradient id="linear-gradient-23" x1="-3655.758" y1="-4252.85" x2="-3635.837" y2="-4198.444" xlink:href="#linear-gradient-7"/>
    <linearGradient id="linear-gradient-24" x1="-3539.464" y1="-4432.732" x2="-3520.21" y2="-4376.141" xlink:href="#linear-gradient-7"/>
    <linearGradient id="linear-gradient-25" x1="-3438.115" y1="-4628.542" x2="-3419.421" y2="-4569.483" xlink:href="#linear-gradient-7"/>
    <linearGradient id="linear-gradient-26" x1="-3402.253" y1="-4918.138" x2="-3383.802" y2="-4855.529" xlink:href="#linear-gradient-7"/>
    <linearGradient id="linear-gradient-27" x1="-3349.221" y1="-5160.445" x2="-3331.012" y2="-5094.593" xlink:href="#linear-gradient-7"/>
    <linearGradient id="linear-gradient-28" x1="-3303.641" y1="-5523.047" x2="-3285.703" y2="-5452.661" xlink:href="#linear-gradient-7"/>
    <linearGradient id="linear-gradient-29" x1="-3253.388" y1="-5939.406" x2="-3235.701" y2="-5863.627" xlink:href="#linear-gradient-7"/>
    <linearGradient id="linear-gradient-30" x1="-3253.541" y1="-6269.617" x2="-3235.93" y2="-6189.991" xlink:href="#linear-gradient-7"/>
    <linearGradient id="linear-gradient-31" x1="-3204.792" y1="-6813.404" x2="-3187.372" y2="-6726.494" xlink:href="#linear-gradient-7"/>
    <linearGradient id="linear-gradient-32" x1="-3204.996" y1="-7193.523" x2="-3187.574" y2="-7101.798" xlink:href="#linear-gradient-7"/>
    <linearGradient id="linear-gradient-33" x1="-3181.3" y1="-7561.144" x2="-3164.016" y2="-7464.769" xlink:href="#linear-gradient-7"/>
    <linearGradient id="linear-gradient-34" x1="-3205.453" y1="-7960.933" x2="-3188.039" y2="-7859.525" xlink:href="#linear-gradient-7"/>
    <linearGradient id="linear-gradient-35" x1="-3205.71" y1="-8054.9" x2="-3188.296" y2="-7952.286" xlink:href="#linear-gradient-7"/>
    <linearGradient id="linear-gradient-36" x1="-3205.982" y1="-8246.587" x2="-3188.591" y2="-8141.652" xlink:href="#linear-gradient-7"/>
    <linearGradient id="linear-gradient-37" x1="-3255.218" y1="-8291.557" x2="-3237.577" y2="-8186.145" xlink:href="#linear-gradient-7"/>
    <linearGradient id="linear-gradient-38" x1="-3206.537" y1="-8390.248" x2="-3189.214" y2="-8283.944" xlink:href="#linear-gradient-7"/>
    <linearGradient id="linear-gradient-39" x1="-3182.932" y1="-8234.64" x2="-3165.664" y2="-8129.884" xlink:href="#linear-gradient-7"/>
    <linearGradient id="linear-gradient-40" x1="-3183.246" y1="-8373.609" x2="-3165.992" y2="-8267.184" xlink:href="#linear-gradient-7"/>
    <linearGradient id="linear-gradient-41" x1="-3183.582" y1="-7571.131" x2="-3166.313" y2="-7474.803" xlink:href="#linear-gradient-7"/>
    <linearGradient id="linear-gradient-42" x1="-3207.862" y1="-6772.486" x2="-3190.501" y2="-6686.55" xlink:href="#linear-gradient-7"/>
    <linearGradient id="linear-gradient-43" x1="-3208.236" y1="-6685.438" x2="-3190.815" y2="-6600.326" xlink:href="#linear-gradient-7"/>
    <linearGradient id="linear-gradient-44" x1="-3232.933" y1="-6407.95" x2="-3215.357" y2="-6326.286" xlink:href="#linear-gradient-7"/>
    <linearGradient id="linear-gradient-45" x1="-3257.958" y1="-5844.215" x2="-3240.31" y2="-5770.006" xlink:href="#linear-gradient-7"/>
    <linearGradient id="linear-gradient-46" x1="-3308.881" y1="-5538.759" x2="-3290.943" y2="-5468.391" xlink:href="#linear-gradient-7"/>
    <linearGradient id="linear-gradient-47" x1="-3328.823" y1="-5176.405" x2="-3310.849" y2="-5110.896" xlink:href="#linear-gradient-7"/>
    <linearGradient id="linear-gradient-48" x1="-3406.047" y1="-4859.079" x2="-3387.499" y2="-4797.079" xlink:href="#linear-gradient-7"/>
    <linearGradient id="linear-gradient-49" x1="-3485.749" y1="-4645.557" x2="-3466.794" y2="-4586.38" xlink:href="#linear-gradient-7"/>
    <linearGradient id="linear-gradient-50" x1="-3572.806" y1="-4449.963" x2="-3553.498" y2="-4393.611" xlink:href="#linear-gradient-7"/>
    <linearGradient id="linear-gradient-51" x1="-3690.749" y1="-4270.463" x2="-3670.745" y2="-4216.234" xlink:href="#linear-gradient-7"/>
    <linearGradient id="linear-gradient-52" x1="-3793.47" y1="-4105.008" x2="-3772.832" y2="-4052.696" xlink:href="#linear-gradient-7"/>
    <linearGradient id="linear-gradient-53" x1="-3925.801" y1="-4001.79" x2="-3904.483" y2="-3950.878" xlink:href="#linear-gradient-7"/>
    <linearGradient id="linear-gradient-54" x1="-4234.619" y1="-3903.787" x2="-4211.587" y2="-3854.058" xlink:href="#linear-gradient-7"/>
    <linearGradient id="linear-gradient-55" x1="-4231.189" y1="-3810.353" x2="-4208.278" y2="-3762.016" xlink:href="#linear-gradient-7"/>
    <linearGradient id="linear-gradient-56" x1="-4482.153" y1="-3721.36" x2="-4457.908" y2="-3674.207" xlink:href="#linear-gradient-7"/>
    <linearGradient id="linear-gradient-57" x1="-4722.017" y1="-3669.355" x2="-4696.399" y2="-3622.731" xlink:href="#linear-gradient-7"/>
    <linearGradient id="linear-gradient-58" x1="-4986.227" y1="-3550.64" x2="-4959.146" y2="-3505.478" xlink:href="#linear-gradient-7"/>
    <linearGradient id="linear-gradient-59" x1="-5254.678" y1="-3551.369" x2="-5226.215" y2="-3506.305" xlink:href="#linear-gradient-7"/>
    <linearGradient id="linear-gradient-60" x1="-5708.407" y1="-3512.704" x2="-5677.504" y2="-3468.172" xlink:href="#linear-gradient-7"/>
    <linearGradient id="linear-gradient-61" x1="-6019.744" y1="-3477.226" x2="-5987.104" y2="-3433.085" xlink:href="#linear-gradient-7"/>
    <linearGradient id="linear-gradient-62" x1="-6660.34" y1="-3441.351" x2="-6624.293" y2="-3397.727" xlink:href="#linear-gradient-7"/>
    <linearGradient id="linear-gradient-63" x1="-7032.316" y1="-3478.39" x2="-6994.244" y2="-3434.292" xlink:href="#linear-gradient-7"/>
    <linearGradient id="linear-gradient-64" x1="-7391.353" y1="-3480.317" x2="-7351.289" y2="-3436.125" xlink:href="#linear-gradient-7"/>
    <linearGradient id="linear-gradient-65" x1="-7633.589" y1="-3481.177" x2="-7592.289" y2="-3437.088" xlink:href="#linear-gradient-7"/>
    <linearGradient id="linear-gradient-66" x1="-7751.542" y1="-3519.932" x2="-7709.571" y2="-3475.304" xlink:href="#linear-gradient-7"/>
    <linearGradient id="linear-gradient-67" x1="-7642.355" y1="-3520.346" x2="-7601.015" y2="-3475.774" xlink:href="#linear-gradient-7"/>
    <linearGradient id="linear-gradient-68" x1="-7782.028" y1="-3521.124" x2="-7740.028" y2="-3476.646" xlink:href="#linear-gradient-7"/>
    <linearGradient id="linear-gradient-69" x1="-7782.72" y1="-3482.467" x2="-7740.612" y2="-3438.363" xlink:href="#linear-gradient-7"/>
    <linearGradient id="linear-gradient-70" x1="-7507.104" y1="-3482.844" x2="-7466.472" y2="-3438.708" xlink:href="#linear-gradient-7"/>
    <linearGradient id="linear-gradient-71" x1="-7085.186" y1="-3481.762" x2="-7046.89" y2="-3437.708" xlink:href="#linear-gradient-7"/>
    <linearGradient id="linear-gradient-72" x1="-6579.338" y1="-3442.132" x2="-6543.718" y2="-3398.497" xlink:href="#linear-gradient-7"/>
    <linearGradient id="linear-gradient-73" x1="-6066.556" y1="-3479.992" x2="-6033.756" y2="-3435.957" xlink:href="#linear-gradient-7"/>
    <linearGradient id="linear-gradient-74" x1="-5676.97" y1="-3518.741" x2="-5646.238" y2="-3474.164" xlink:href="#linear-gradient-7"/>
    <linearGradient id="linear-gradient-75" x1="-5284.431" y1="-3558.225" x2="-5255.825" y2="-3513.138" xlink:href="#linear-gradient-7"/>
    <linearGradient id="linear-gradient-76" x1="-4976.405" y1="-3554.661" x2="-4949.502" y2="-3509.666" xlink:href="#linear-gradient-7"/>
    <linearGradient id="linear-gradient-77" x1="-4680.611" y1="-3635.941" x2="-4655.232" y2="-3589.794" xlink:href="#linear-gradient-7"/>
    <linearGradient id="linear-gradient-78" x1="-4444.242" y1="-3731.01" x2="-4420.216" y2="-3683.81" xlink:href="#linear-gradient-7"/>
    <linearGradient id="linear-gradient-79" x1="-4240.013" y1="-3820.964" x2="-4217.112" y2="-3772.663" xlink:href="#linear-gradient-7"/>
    <linearGradient id="linear-gradient-80" x1="-4243.962" y1="-3915.435" x2="-4220.991" y2="-3865.83" xlink:href="#linear-gradient-7"/>
    <linearGradient id="linear-gradient-81" x1="-3935.029" y1="-4014.476" x2="-3913.757" y2="-3963.692" xlink:href="#linear-gradient-7"/>
    <linearGradient id="linear-gradient-82" x1="-3802.834" y1="-4118.673" x2="-3782.285" y2="-4066.582" xlink:href="#linear-gradient-7"/>
    <linearGradient id="linear-gradient-83" x1="-3705.362" y1="-4285.528" x2="-3685.357" y2="-4231.353" xlink:href="#linear-gradient-7"/>
    <linearGradient id="linear-gradient-84" x1="-3582.576" y1="-4530.252" x2="-3563.233" y2="-4472.995" xlink:href="#linear-gradient-7"/>
    <linearGradient id="linear-gradient-85" x1="-3477.719" y1="-4733.014" x2="-3458.902" y2="-4673.044" xlink:href="#linear-gradient-7"/>
    <linearGradient id="linear-gradient-86" x1="-3425.627" y1="-4878.311" x2="-3407.107" y2="-4816.572" xlink:href="#linear-gradient-7"/>
    <linearGradient id="linear-gradient-87" x1="-3345.3" y1="-5197.896" x2="-3327.198" y2="-5132.061" xlink:href="#linear-gradient-7"/>
    <linearGradient id="linear-gradient-88" x1="-3319.269" y1="-5562.229" x2="-3301.308" y2="-5491.756" xlink:href="#linear-gradient-7"/>
    <linearGradient id="linear-gradient-89" x1="-3287.941" y1="-5870.173" x2="-3270.163" y2="-5795.865" xlink:href="#linear-gradient-7"/>
    <linearGradient id="linear-gradient-90" x1="-3243.478" y1="-6436.307" x2="-3225.933" y2="-6354.805" xlink:href="#linear-gradient-7"/>
    <linearGradient id="linear-gradient-91" x1="-3218.879" y1="-6720.236" x2="-3201.466" y2="-6635.13" xlink:href="#linear-gradient-7"/>
    <linearGradient id="linear-gradient-92" x1="-3194.695" y1="-6939.422" x2="-3177.404" y2="-6851.486" xlink:href="#linear-gradient-7"/>
    <linearGradient id="linear-gradient-93" x1="-3194.442" y1="-7608.039" x2="-3177.188" y2="-7511.809" xlink:href="#linear-gradient-7"/>
    <linearGradient id="linear-gradient-94" x1="-3194.203" y1="-7934.784" x2="-3176.957" y2="-7834.457" xlink:href="#linear-gradient-7"/>
    <linearGradient id="linear-gradient-95" x1="-3218.033" y1="-8033.212" x2="-3200.552" y2="-7930.998" xlink:href="#linear-gradient-7"/>
    <linearGradient id="linear-gradient-96" x1="-3242.125" y1="-8507.654" x2="-3224.565" y2="-8399.705" xlink:href="#linear-gradient-7"/>
    <linearGradient id="linear-gradient-97" x1="-3241.781" y1="-8556.702" x2="-3224.213" y2="-8448.087" xlink:href="#linear-gradient-7"/>
    <linearGradient id="linear-gradient-98" x1="-3241.478" y1="-8281.978" x2="-3223.978" y2="-8177.272" xlink:href="#linear-gradient-7"/>
    <linearGradient id="linear-gradient-99" x1="-3216.856" y1="-8088.364" x2="-3199.42" y2="-7985.658" xlink:href="#linear-gradient-7"/>
    <linearGradient id="linear-gradient-100" x1="-3192.464" y1="-8496.688" x2="-3175.248" y2="-8389.312" xlink:href="#linear-gradient-7"/>
    <linearGradient id="linear-gradient-101" x1="-3192.195" y1="-7600.064" x2="-3174.867" y2="-7503.404" xlink:href="#linear-gradient-7"/>
    <linearGradient id="linear-gradient-102" x1="-3191.819" y1="-7227.238" x2="-3174.521" y2="-7135.483" xlink:href="#linear-gradient-7"/>
    <linearGradient id="linear-gradient-103" x1="-3215.477" y1="-6781.704" x2="-3198.041" y2="-6695.503" xlink:href="#linear-gradient-7"/>
    <linearGradient id="linear-gradient-104" x1="-3239.516" y1="-6290.756" x2="-3221.865" y2="-6210.444" xlink:href="#linear-gradient-7"/>
    <linearGradient id="linear-gradient-105" x1="-3288.942" y1="-5855.889" x2="-3271.112" y2="-5781.482" xlink:href="#linear-gradient-7"/>
    <linearGradient id="linear-gradient-106" x1="-3313.974" y1="-5546.354" x2="-3296.114" y2="-5476.284" xlink:href="#linear-gradient-7"/>
    <linearGradient id="linear-gradient-107" x1="-3359.464" y1="-5181.839" x2="-3341.223" y2="-5115.872" xlink:href="#linear-gradient-7"/>
    <linearGradient id="linear-gradient-108" x1="-3419.264" y1="-4861.972" x2="-3400.68" y2="-4800.018" xlink:href="#linear-gradient-7"/>
    <linearGradient id="linear-gradient-109" x1="-3492.142" y1="-4646.598" x2="-3473.087" y2="-4587.171" xlink:href="#linear-gradient-7"/>
    <linearGradient id="linear-gradient-110" x1="-3574.793" y1="-4449.273" x2="-3555.401" y2="-4392.667" xlink:href="#linear-gradient-7"/>
    <linearGradient id="linear-gradient-111" x1="-3697.091" y1="-4268.115" x2="-3676.946" y2="-4213.574" xlink:href="#linear-gradient-7"/>
    <linearGradient id="linear-gradient-112" x1="-3821.869" y1="-4154.754" x2="-3801.194" y2="-4102.03" xlink:href="#linear-gradient-7"/>
    <linearGradient id="linear-gradient-113" x1="-3931.215" y1="-3996.241" x2="-3909.863" y2="-3945.329" xlink:href="#linear-gradient-7"/>
    <linearGradient id="linear-gradient-114" x1="-4232.477" y1="-3849.192" x2="-4209.564" y2="-3800.314" xlink:href="#linear-gradient-7"/>
    <linearGradient id="linear-gradient-115" x1="-4228.852" y1="-3802.092" x2="-4205.946" y2="-3753.779" xlink:href="#linear-gradient-7"/>
    <linearGradient id="linear-gradient-116" x1="-4431.203" y1="-3711.95" x2="-4407.157" y2="-3664.691" xlink:href="#linear-gradient-7"/>
    <linearGradient id="linear-gradient-117" x1="-4716.147" y1="-3616.673" x2="-4690.552" y2="-3570.63" xlink:href="#linear-gradient-7"/>
    <linearGradient id="linear-gradient-118" x1="-4960.821" y1="-3575.457" x2="-4933.93" y2="-3529.998" xlink:href="#linear-gradient-7"/>
    <linearGradient id="linear-gradient-119" x1="-5245.801" y1="-3499.2" x2="-5217.25" y2="-3454.525" xlink:href="#linear-gradient-7"/>
    <linearGradient id="linear-gradient-120" x1="-5629.628" y1="-3501.149" x2="-5599.091" y2="-3456.585" xlink:href="#linear-gradient-7"/>
    <linearGradient id="linear-gradient-121" x1="-5971.525" y1="-3462.135" x2="-5939.13" y2="-3418.05" xlink:href="#linear-gradient-7"/>
    <linearGradient id="linear-gradient-122" x1="-6643.987" y1="-3461.638" x2="-6607.956" y2="-3417.584" xlink:href="#linear-gradient-7"/>
    <linearGradient id="linear-gradient-123" x1="-6936.358" y1="-3424.859" x2="-6898.737" y2="-3381.267" xlink:href="#linear-gradient-7"/>
    <linearGradient id="linear-gradient-124" x1="-7473.787" y1="-3462.002" x2="-7433.211" y2="-3417.887" xlink:href="#linear-gradient-7"/>
    <linearGradient id="linear-gradient-125" x1="-7648.313" y1="-3461.956" x2="-7606.785" y2="-3417.835" xlink:href="#linear-gradient-7"/>
    <linearGradient id="linear-gradient-126" x1="-7723.661" y1="-3499.933" x2="-7681.828" y2="-3455.433" xlink:href="#linear-gradient-7"/>
    <linearGradient id="linear-gradient-127" x1="-7753.846" y1="-3538.809" x2="-7711.882" y2="-3493.865" xlink:href="#linear-gradient-7"/>
    <linearGradient id="linear-gradient-128" x1="-233.761" y1="-230.885" x2="-235.098" y2="-232.52" xlink:href="#linear-gradient-7"/>
    <linearGradient id="linear-gradient-129" x1="-278.911" y1="-230.609" x2="-280.507" y2="-232.246" xlink:href="#linear-gradient-7"/>
    <linearGradient id="linear-gradient-130" x1="-411.64" y1="-178.319" x2="-413.382" y2="-179.279" gradientUnits="objectBoundingBox">
      <stop offset="0.07" stop-color="#d19526"/>
      <stop offset="0.1" stop-color="#d59c32"/>
      <stop offset="0.15" stop-color="#e0af52"/>
      <stop offset="0.23" stop-color="#f1cc85"/>
      <stop offset="0.25" stop-color="#f8d899"/>
      <stop offset="0.29" stop-color="#ecc374"/>
      <stop offset="0.34" stop-color="#e0af53"/>
      <stop offset="0.39" stop-color="#d8a13a"/>
      <stop offset="0.43" stop-color="#d3982b"/>
      <stop offset="0.46" stop-color="#d19526"/>
      <stop offset="0.83" stop-color="#f8d899"/>
      <stop offset="0.88" stop-color="#ebc273"/>
      <stop offset="0.93" stop-color="#ddaa4a"/>
      <stop offset="0.97" stop-color="#d49b30"/>
      <stop offset="1" stop-color="#d19526"/>
    </linearGradient>
    <linearGradient id="linear-gradient-131" x1="-234.193" y1="-164.641" x2="-235.183" y2="-165.526" xlink:href="#linear-gradient-130"/>
    <linearGradient id="linear-gradient-132" x1="-478.594" y1="-439.895" x2="-481.327" y2="-443.008" xlink:href="#linear-gradient-7"/>
  </defs>
  <g id="Group_1832" data-name="Group 1832" transform="translate(-786.125 -68.826)">
    <g id="Kingsmill_Resort" data-name="Kingsmill Resort" transform="translate(785.595 68.649)">
      <path id="Path_2370" data-name="Path 2370" d="M15.014,84.373a.447.447,0,0,1,0-.682H21.3c.256,0,.234.49,0,.682h-.66c-.6,0-.959.234-.959.49a23.049,23.049,0,0,0,1.64,3.771c1.619,3.621,3.323,7.243,5.006,10.822.7-1.449,1.449-3.089,2.237-4.708a8.222,8.222,0,0,0,.469-1.172,2.386,2.386,0,0,0-.234-.682c-1.023-2.322-2.13-4.623-3.2-6.945-.426-.895-.873-1.513-1.853-1.6h-.682a.426.426,0,0,1,0-.682h6.284c.213,0,.234.469,0,.682H28.6c-1.129,0-1.193.3-.618,1.6s1.427,3.238,2.237,5.027a40.638,40.638,0,0,0,1.7-3.792c1.044-2.45.895-2.769,0-2.833h-.873a.482.482,0,0,1,0-.682h5.5c.192,0,.234.469,0,.682H35.7c-1.214,0-1.726,1.385-2.365,2.578s-1.832,3.6-2.258,4.6a2.642,2.642,0,0,0-.277.7,2.407,2.407,0,0,0,.213.7c.98,2.13,2,4.388,2.961,6.6.895-2.13,1.726-4.069,2.6-6.114.554-1.406,2.13-5.241,2.322-5.773a19.172,19.172,0,0,0,.873-2.642c0-.4-.362-.639-.959-.66h-.852c-.234-.256-.192-.575,0-.682h5.475c.234,0,.256.469,0,.682h-.554c-1.427.149-1.7,1.023-3.43,5.049l-2.13,4.878c-.852,2.876-2.13,5.773-3.3,8.883a.66.66,0,0,1-.362,0,.873.873,0,0,1-.4,0c-.916-2.578-2.6-6.2-3.494-8.223a85.43,85.43,0,0,0-3.621,8.223.618.618,0,0,1-.362,0,1.087,1.087,0,0,1-.426,0c-.49-1.214-1.619-3.835-2-4.665C21.554,94.471,19.7,90.444,17.826,86.5c-.554-1.193-.916-1.96-2.13-2.13Z" transform="translate(16.193 94.371)" fill="#d19526"/>
      <path id="Path_2371" data-name="Path 2371" d="M30.335,89.3c0-2.258,0-2.642-1.3-2.727H28.5c-.128,0,0-.469,0-.554h5.326c.128,0,.17.469,0,.554H33.3c-1.257,0-1.3.469-1.3,2.727v7.584c0,2.258,0,2.556,1.3,2.705h.533c.128,0,0,.469,0,.533H28.5a.4.4,0,0,1,0-.533h.533c1.257-.149,1.3-.447,1.3-2.705Z" transform="translate(31.505 97.028)" fill="#d19526"/>
      <path id="Path_2372" data-name="Path 2372" d="M33.783,89.258c0-2.258,0-2.6-1.385-2.684h-.533c-.128,0,0-.469,0-.554h5.39c.128,0,.17.469,0,.554h-.511c-1.257,0-1.3.426-1.3,2.684v7.371c0,1.342,0,1.9.447,2.3s.639.49,2.322.49,2.258,0,2.6-.277a4.537,4.537,0,0,0,1.406-2.13c.128,0,.533,0,.533.128a17.042,17.042,0,0,1-.895,2.982H31.823a.4.4,0,0,1,0-.533h.639c1.236-.128,1.278-.426,1.278-2.663Z" transform="translate(35.257 97.028)" fill="#d19526"/>
      <path id="Path_2373" data-name="Path 2373" d="M39.323,89.258c0-2.258,0-2.6-1.385-2.684h-.533c-.128,0,0-.469,0-.554H42.8c.128,0,.17.469,0,.554h-.511c-1.257,0-1.3.426-1.3,2.684v7.371c0,1.342,0,1.9.447,2.3s.639.49,2.322.49,2.258,0,2.6-.277a4.537,4.537,0,0,0,1.406-2.13c.128,0,.533,0,.533.128a17.042,17.042,0,0,1-.895,2.982H37.363a.4.4,0,0,1,0-.533H38c1.236-.128,1.278-.426,1.278-2.663Z" transform="translate(41.519 97.028)" fill="#d19526"/>
      <path id="Path_2374" data-name="Path 2374" d="M44.785,89.3c0-2.258,0-2.642-1.3-2.727h-.533c-.128,0,0-.469,0-.554h5.326c.128,0,.17.469,0,.554h-.533c-1.257,0-1.3.469-1.3,2.727v7.584c0,2.258,0,2.556,1.3,2.705h.533c.128,0,0,.469,0,.533H42.953a.4.4,0,0,1,0-.533h.533c1.257-.149,1.3-.447,1.3-2.705Z" transform="translate(47.838 97.028)" fill="#d19526"/>
      <path id="Path_2375" data-name="Path 2375" d="M54.872,95.4c-.149-.469-.234-.533-.873-.533H50.74c-.533,0-.66,0-.81.511l-.746,2.13a8.138,8.138,0,0,0-.469,1.768c0,.256,0,.383.618.426h.7a.341.341,0,0,1,0,.533H45.67a.426.426,0,0,1,0-.533h.7a1.406,1.406,0,0,0,1.278-1.044c.4-.98,1-2.365,1.9-4.751l2.13-5.752a3.046,3.046,0,0,0,.362-1.513,2.535,2.535,0,0,0,1.108-.81c.128,0,.277,0,.32.192.277.916.618,1.917.937,2.855L57.322,97.4c.618,1.832.895,2.13,1.811,2.258h.575a.426.426,0,0,1,0,.533H54.681a.362.362,0,0,1,0-.533H55.3c.447,0,.746-.17.746-.383a4.261,4.261,0,0,0-.277-1.129Zm-4.261-1.9c-.17.49-.149.511.447.511h2.663c.618,0,.66,0,.469-.66l-1.15-3.472a14.038,14.038,0,0,0-.49-1.342h0a12.978,12.978,0,0,0-.511,1.257Z" transform="translate(50.915 96.813)" fill="#d19526"/>
      <path id="Path_2376" data-name="Path 2376" d="M59.972,94.521c.49,1,.959,1.981,1.47,2.919h0c.575-1,1.108-2.13,1.64-3.2l2-4.069A11.887,11.887,0,0,0,66.746,86a12.1,12.1,0,0,0,1.6,0h1.9a.49.49,0,0,1,0,.554h-.447c-1.342.149-1.513.533-1.491,2.13,0,2.258,0,6.2.234,9.267,0,1.065,0,1.619,1.044,1.726h.682a.383.383,0,0,1,0,.533H65.17a.4.4,0,0,1,0-.533h.618c1.044,0,1.044-.447,1.044-1.811V88.982h0c-.149.234-.959,1.939-1.385,2.769l-1.9,3.728c-.959,1.875-1.939,3.877-2.3,4.857a.319.319,0,0,1-.234,0,.256.256,0,0,1-.192,0c-.362-1.129-1.385-3.217-1.875-4.261l-1.917-4.111c-.447-.98-.895-2.13-1.363-3.068h0c0,1.321-.149,2.556-.213,3.792s-.149,3.2-.149,5.006.128,1.917.959,1.981h.81c.149.128.128.469,0,.533H52.58a.426.426,0,0,1,0-.533h.469c.895,0,1.193-.256,1.321-1.747s.234-2.578.362-4.687c0-1.768.192-3.579.234-4.751s-.128-1.619-1.427-1.832H53.2a.426.426,0,0,1,0-.554,16.166,16.166,0,0,0,1.683,0,13.852,13.852,0,0,0,1.768,0,8.223,8.223,0,0,0,1.108,3.536Z" transform="translate(58.726 97.005)" fill="#d19526"/>
      <path id="Path_2377" data-name="Path 2377" d="M65.538,100.623a6.647,6.647,0,0,1-3.323-.788,9.842,9.842,0,0,1-.575-2.982c0-.149.426-.192.511,0a3.877,3.877,0,0,0,3.664,3.174,2.429,2.429,0,0,0,2.663-2.45,3.2,3.2,0,0,0-1.747-2.982L64.6,93.274a4.538,4.538,0,0,1-2.194-3.728c0-2.13,1.576-3.664,4.261-3.664a7.307,7.307,0,0,1,2.13.256,2.854,2.854,0,0,0,.746.128,9.608,9.608,0,0,1,.383,2.62c0,.128-.426.192-.533,0a2.791,2.791,0,0,0-2.9-2.407,2.13,2.13,0,0,0-2.6,2.429,3.387,3.387,0,0,0,1.811,2.62l1.7,1.065a4.793,4.793,0,0,1,2.663,4.2,4.026,4.026,0,0,1-4.538,3.835Z" transform="translate(69.072 96.868)" fill="#d19526"/>
      <path id="Path_2378" data-name="Path 2378" d="M68.394,88.861c0-1.576,0-1.96-1.044-2.13h-.682a.362.362,0,0,1,0-.554c1.15,0,2.6-.17,4.58-.17a8.1,8.1,0,0,1,3.579.618,2.791,2.791,0,0,1,1.619,2.663,3.089,3.089,0,0,1-2.13,2.918c0,.213.17.277.4.32a3.515,3.515,0,0,1,2.855,3.558c0,2.471-1.832,4.133-5.667,4.133H66.9a.4.4,0,0,1,0-.533h.383c1.129-.17,1.172-.426,1.172-2.663Zm1.747,2.833c0,.6,0,.639,1.108.6,2.13,0,3.345-.724,3.345-2.727a2.833,2.833,0,0,0-3.174-2.9,2.535,2.535,0,0,0-.98.149c-.213,0-.3.17-.3.554Zm0,4.942a4.261,4.261,0,0,0,.447,2.322,2.13,2.13,0,0,0,1.683.6c1.9,0,3.345-.852,3.345-2.982,0-1.683-.852-3.643-4.261-3.643-1.15,0-1.236.128-1.236.554Z" transform="translate(74.61 96.998)" fill="#d19526"/>
      <path id="Path_2379" data-name="Path 2379" d="M84.669,91.4a15.593,15.593,0,0,0-.3-4.431,1.385,1.385,0,0,0-1.065-.426h-.533a.383.383,0,0,1,0-.511h4.559a.362.362,0,0,1,0,.511h-.511a1.128,1.128,0,0,0-1.065.511,17.894,17.894,0,0,0-.3,4.261V93.72a7.413,7.413,0,0,1-1.491,5.091,5.6,5.6,0,0,1-4.069,1.555,5.113,5.113,0,0,1-5.667-6.2V89.225c0-2.13,0-2.6-1.278-2.684H72.42c-.128,0,0-.426,0-.511H77.7c.128,0,.17.447,0,.511h-.511c-1.236,0-1.278.447-1.278,2.684v4.6c0,3.43,1.065,5.688,4.261,5.688s4.261-2.429,4.261-5.667Z" transform="translate(81.193 97.039)" fill="#d19526"/>
      <path id="Path_2380" data-name="Path 2380" d="M81.844,89.264c0-2.13,0-2.386-.937-2.492h-.682a.383.383,0,0,1,0-.554c1.193,0,2.663-.17,4.751-.17a7.626,7.626,0,0,1,3.579.66,3.174,3.174,0,0,1,1.768,2.982,3.92,3.92,0,0,1-2.684,3.558.828.828,0,0,0,.128.511,22.986,22.986,0,0,0,4.261,5.667,2.556,2.556,0,0,0,1.47.6.17.17,0,0,1,0,.3,3.323,3.323,0,0,1-.937,0c-1.811,0-2.9-.533-4.41-2.684-.575-.788-1.449-2.258-2.13-3.217a1.513,1.513,0,0,0-1.513-.682c-.959,0-1,0-1,.469V96.89c0,2.13,0,2.492,1.278,2.663h.447a.426.426,0,0,1,0,.533h-5.2a.4.4,0,0,1,0-.533h.533c1.236-.149,1.278-.426,1.278-2.663Zm1.747,3.089a1.683,1.683,0,0,0,0,.7h1.47a3.579,3.579,0,0,0,2.13-.554,3,3,0,0,0,1.086-2.642,3.174,3.174,0,0,0-3.43-3.3c-1.321,0-1.385,0-1.385.7Z" transform="translate(89.749 97.043)" fill="#d19526"/>
      <path id="Path_2381" data-name="Path 2381" d="M98.878,98.118c0,.852.149,1.363.511,1.513a.192.192,0,0,1,0,.256,4.709,4.709,0,0,0-1.065.192,16.659,16.659,0,0,1-3.813.554,8.883,8.883,0,0,1-6.391-2.365,6.711,6.711,0,0,1-1.96-4.836,7.307,7.307,0,0,1,1.917-5.049,8.819,8.819,0,0,1,6.753-2.492,11.439,11.439,0,0,1,2.705.32,7.265,7.265,0,0,0,1.321.192,23.965,23.965,0,0,0,.32,3.089c0,.17-.447.192-.554,0a3.941,3.941,0,0,0-4.388-3.025A5.645,5.645,0,0,0,88.291,92.6c0,4.09,2.13,7.307,6.391,7.307,1.321,0,2.13-.277,2.343-.639a2.365,2.365,0,0,0,.213-1.214V97.2c0-1.789,0-1.917-1.385-2.13h-.937a.362.362,0,0,1,0-.533h5.3a.362.362,0,0,1,0,.533H99.88c-.895,0-.916.7-.916,1.789Z" transform="translate(96.787 96.859)" fill="#d19526"/>
      <path id="Path_2382" data-name="Path 2382" d="M96.623,93.51A3.323,3.323,0,0,1,93.853,96.6a.341.341,0,0,1-.128-.511c.66-.213,1.747-.746,1.747-1.853S94.45,93.1,94.258,93a.639.639,0,0,1-.362-.618.959.959,0,0,1,1.044-.959,1.875,1.875,0,0,1,1.683,2.088Z" transform="translate(105.263 103.129)" fill="#d19526"/>
      <path id="Path_2383" data-name="Path 2383" d="M101.1,86.76c-.66-1.619-1.108-2.13-2.343-2.386h-.533a.49.49,0,0,1,0-.724h6.519a.511.511,0,0,1,0,.724H104.3c-1.086.149-1.321.32-1.342.554A30.039,30.039,0,0,0,104.4,89c1.321,3.345,2.663,6.689,4.111,9.991.895-1.917,2.13-4.9,2.769-6.391.873-1.981,2.13-5.241,2.705-6.391a3.387,3.387,0,0,0,.256-1.129c0-.192-.3-.426-1.3-.554h-.533a.511.511,0,0,1,0-.724h5.816c.213.107.213.575,0,.724h-.873a1.917,1.917,0,0,0-1.512,1.023,69.269,69.269,0,0,0-3,6.519l-1.555,3.558c-1.172,2.663-2.535,6.029-3.025,7.563a.511.511,0,0,1-.32,0,1.022,1.022,0,0,1-.426,0,27.69,27.69,0,0,0-1.342-3.856Z" transform="translate(110.243 94.349)" fill="#d19526"/>
      <path id="Path_2384" data-name="Path 2384" d="M109.635,89.3c0-2.258,0-2.642-1.3-2.727H107.8c-.128,0,0-.469,0-.554h5.326c.128,0,.17.469,0,.554H112.6c-1.257,0-1.3.469-1.3,2.727v7.584c0,2.258,0,2.556,1.3,2.705h.533c.128,0,0,.469,0,.533H107.8a.4.4,0,0,1,0-.533h.533c1.257-.149,1.3-.447,1.3-2.705Z" transform="translate(121.137 97.028)" fill="#d19526"/>
      <path id="Path_2385" data-name="Path 2385" d="M113.093,89.264c0-2.13,0-2.386-.937-2.492h-.682a.383.383,0,0,1,0-.554c1.193,0,2.663-.17,4.751-.17a7.541,7.541,0,0,1,3.558.66,3.2,3.2,0,0,1,1.789,2.982,3.962,3.962,0,0,1-2.684,3.558c0,.128,0,.341,0,.511a23.434,23.434,0,0,0,4.261,5.667,2.556,2.556,0,0,0,1.47.6.17.17,0,0,1,0,.3,3.324,3.324,0,0,1-.937,0c-1.811,0-2.9-.533-4.431-2.684-.554-.788-1.427-2.258-2.13-3.217a1.513,1.513,0,0,0-1.512-.682c-.959,0-1,0-1,.469V96.89c0,2.13,0,2.492,1.278,2.663h.447a.426.426,0,0,1,0,.533h-5.2a.4.4,0,0,1,0-.533h.533c1.236-.149,1.278-.426,1.278-2.663Zm1.747,3.046a1.683,1.683,0,0,0,0,.7h1.47a3.579,3.579,0,0,0,2.13-.554,3.046,3.046,0,0,0,1.065-2.642,3.153,3.153,0,0,0-3.408-3.3c-1.321,0-1.385,0-1.385.7Z" transform="translate(124.901 97.043)" fill="#d19526"/>
      <path id="Path_2386" data-name="Path 2386" d="M130.027,98.118c0,.852.128,1.363.511,1.513a.17.17,0,0,1,0,.256,4.772,4.772,0,0,0-1.044.192,16.658,16.658,0,0,1-3.813.554,8.883,8.883,0,0,1-6.391-2.365,6.711,6.711,0,0,1-1.96-4.836,7.307,7.307,0,0,1,1.917-5.049A8.819,8.819,0,0,1,126,85.89a11.439,11.439,0,0,1,2.705.32,7.031,7.031,0,0,0,1.321.192,23.968,23.968,0,0,0,.32,3.089c0,.17-.447.192-.575,0a3.9,3.9,0,0,0-4.261-3.025,5.645,5.645,0,0,0-5.944,6.135c0,4.09,2.13,7.307,6.391,7.307,1.321,0,2.13-.277,2.343-.639a2.365,2.365,0,0,0,.213-1.214V97.2c0-1.789,0-1.917-1.385-2.13h-.937a.362.362,0,0,1,0-.533h5.3a.341.341,0,0,1,0,.533h-.341c-.895,0-.916.7-.916,1.789Z" transform="translate(132.018 96.859)" fill="#d19526"/>
      <path id="Path_2387" data-name="Path 2387" d="M126.6,89.3c0-2.258,0-2.642-1.3-2.727h-.533c-.128,0,0-.469,0-.554h5.326c.128,0,.17.469,0,.554h-.533c-1.257,0-1.3.469-1.3,2.727v7.584c0,2.258,0,2.556,1.3,2.705h.533c.128,0,0,.469,0,.533h-5.326a.4.4,0,0,1,0-.533h.533c1.257-.149,1.3-.447,1.3-2.705Z" transform="translate(140.307 97.028)" fill="#d19526"/>
      <path id="Path_2388" data-name="Path 2388" d="M141.519,96.5v3.728a.383.383,0,0,1-.4.234c-.277-.362-.873-1.108-2.748-3.217l-4.942-5.624c-.575-.66-2.024-2.407-2.471-2.876h0a5.409,5.409,0,0,0,0,1.385v4.644a17.616,17.616,0,0,0,.383,4.41,1.449,1.449,0,0,0,1.086.4h.66a.383.383,0,0,1,0,.533H128.46a.4.4,0,0,1,0-.533h.575a.992.992,0,0,0,.937-.426,20.558,20.558,0,0,0,.277-4.388V88.619a1.96,1.96,0,0,0-.469-1.534,2.3,2.3,0,0,0-1.321-.511H128.1a.4.4,0,0,1,0-.554h2.407a4.665,4.665,0,0,0,.98,0,29.825,29.825,0,0,0,3.643,4.708l2.13,2.322c1.449,1.662,2.514,2.833,3.536,3.856h0c.107,0,.107-.447.107-.895v-4.6a15.168,15.168,0,0,0-.447-4.431c-.128-.17-.469-.32-1.321-.4h-.362a.384.384,0,0,1,0-.554h4.644a.4.4,0,0,1,0,.554h-.3a1.429,1.429,0,0,0-1.193.426,17.425,17.425,0,0,0-.32,4.41Z" transform="translate(144.066 97.028)" fill="#d19526"/>
      <path id="Path_2389" data-name="Path 2389" d="M137.815,89.3c0-2.258,0-2.642-1.3-2.727h-.533c-.128,0,0-.469,0-.554h5.326c.128,0,.17.469,0,.554h-.533c-1.257,0-1.3.469-1.3,2.727v7.584c0,2.258,0,2.556,1.3,2.705h.533c.128,0,0,.469,0,.533h-5.326a.4.4,0,0,1,0-.533h.533c1.257-.149,1.3-.447,1.3-2.705Z" transform="translate(152.989 97.028)" fill="#d19526"/>
      <path id="Path_2390" data-name="Path 2390" d="M147.944,95.4c-.149-.469-.234-.533-.873-.533h-3.387c-.533,0-.66,0-.81.511l-.746,2.13a8.138,8.138,0,0,0-.469,1.768c0,.256,0,.383.618.426h.7a.341.341,0,0,1,0,.533H138.72a.426.426,0,0,1,0-.533h.7a1.406,1.406,0,0,0,1.278-1.044c.383-.98.98-2.365,1.875-4.751l2.13-5.752a3.046,3.046,0,0,0,.362-1.513,2.535,2.535,0,0,0,1.108-.81c.128,0,.277,0,.32.192.277.916.618,1.917.959,2.855l2.919,8.521c.618,1.832.895,2.13,1.811,2.258h.575a.426.426,0,0,1,0,.533h-5.049a.362.362,0,0,1,0-.533h.639c.426,0,.746-.17.746-.383a4.666,4.666,0,0,0-.3-1.129Zm-4.261-1.9c-.17.49-.149.511.447.511h2.62c.618,0,.66,0,.469-.66l-1.15-3.472a14.05,14.05,0,0,0-.49-1.342h0a12.99,12.99,0,0,0-.511,1.257Z" transform="translate(156.09 96.813)" fill="#d19526"/>
      <path id="Path_2391" data-name="Path 2391" d="M9.08,49.938c0-8.01-.66-8.9-7.69-9.714V39.18H22.757v1.044c-6.689.81-7.371,1.7-7.371,9.714V62.72A215.4,215.4,0,0,0,35.368,44.1c1.342-1.555,1.768-2.6-.831-3.11L30.7,40.245V39.2H50.77v1.044c-5.2.81-7.03,1.406-12.547,5.347-3.579,2.556-10.2,8.116-16.893,14.209,7.605,8.074,16.893,17.042,20.643,20.387C47.17,85,48,85.812,52.027,86.345v1.044H39.884c-3.92-3.856-19.066-19.428-24.413-24.541V76.631c0,8.01.682,8.883,7.776,9.714v1.044H1.944V86.345c6.433-.831,7.136-1.7,7.136-9.714Z" transform="translate(0.972 44.084)" fill="#d19526" stroke="#d39d2f" stroke-width="0.58"/>
      <path id="Path_2392" data-name="Path 2392" d="M23,42.91v1.108h.128c5.6.66,6.135,1.321,6.135,7.925V74.1c0,6.583-.533,7.264-6.135,7.925H23V83.13H41.3V82.022h0c-5.624-.66-6.135-1.342-6.135-7.925V51.964c0-6.6.511-7.264,6.135-7.925h0V42.931H23Z" transform="translate(25.398 48.3)" fill="#d19526" stroke="#d39d2f" stroke-width="0.58"/>
      <path id="Path_2393" data-name="Path 2393" d="M64.812,42.91v1.108h.128c4.431.469,6.391,1.491,6.817,3.643a56.538,56.538,0,0,1,.895,11.674V74.247L43.147,42.91H32.9v1.108h.213a9.736,9.736,0,0,1,6.093,2.6c1.236,1.321,1.3,1.64,1.3,6.86V66.705a56.388,56.388,0,0,1-1,11.7c-.469,2.13-2.258,3.217-5.986,3.643h0v1.108H50.56V82.044h-.4c-4.431-.469-6.391-1.491-6.817-3.643a56.39,56.39,0,0,1-.916-11.674V50.238L73.589,83.577h1.278V59.356a58.073,58.073,0,0,1,.852-11.674c.49-2.13,2.279-3.238,6.007-3.643h.107V42.931H64.791Z" transform="translate(36.588 48.3)" fill="#d19526" stroke="#d39d2f" stroke-width="0.58"/>
      <path id="Path_2394" data-name="Path 2394" d="M82.527,66.6h.128c7.5.81,7.733,1.491,7.733,5.539v5.9c0,2.791-.959,3.345-2.492,3.962a18.022,18.022,0,0,1-6.2.895c-13.74,0-18.619-10.865-18.619-20.174,0-11.354,6.774-18.7,17.234-18.7,7.776,0,12.441,3.153,14.656,9.885v.107l1.257-.234v-.107c-.447-3.43-.81-6.647-1.108-9.544h0a59.137,59.137,0,0,0-13.293-1.6C69.042,42.53,56.09,49.9,56.09,64c0,11.951,10.651,20.621,25.329,20.621A63.312,63.312,0,0,0,96.1,82.26l.6-.128V82a27.438,27.438,0,0,1-.4-5.56V72.184c0-4.261.3-4.708,4.069-5.539h.107V65.558H82.527Z" transform="translate(62.799 47.871)" fill="#d19526" stroke="#d39d2f" stroke-width="0.58"/>
      <path id="Path_2395" data-name="Path 2395" d="M94.913,59.913c-5.794-2.386-9.139-4.58-9.139-8.819,0-3.345,2-6.945,7.648-6.945,6.519,0,8.521,4.857,9.948,8.521h0l1.278-.213-.618-4.069-.66-4.516h0l-1.747-.341a23.71,23.71,0,0,0-6.689-1c-9.757,0-14.209,5.9-14.209,11.376,0,6.391,7.094,9.395,10.5,10.822l1.023.426.937.426c3.728,1.662,8.351,3.749,8.351,9.373,0,4.857-3.2,7.754-8.521,7.754-6.625,0-10.651-5.475-12.782-10.076h0L79,72.716l.6,2.919a58.872,58.872,0,0,0,1.512,6.391h.213a28.354,28.354,0,0,0,3.536,1.236,30.4,30.4,0,0,0,6.561,1.065c8.777-.128,15.4-5.5,15.4-12.5C106.8,64.6,99.941,61.894,94.913,59.913Z" transform="translate(88.694 47.871)" fill="#d19526" stroke="#d39d2f" stroke-width="0.58"/>
      <path id="Path_2396" data-name="Path 2396" d="M144.917,74.108,144.3,51.952c-.213-6.689.192-7.222,6.114-7.925h.128V42.92H139.719L122.868,74.7c-.234-.4-17.042-31.784-17.042-31.784H94.961v1.108h.128c6.391.7,6.838,1.449,6.391,9.757l-.7,12.931a56.71,56.71,0,0,1-1.449,11.653c-.682,2.258-2.13,3.132-5.858,3.664h0V83.14h16.552V82.032h0c-4.58-.618-6.093-1.47-6.391-3.643a39.2,39.2,0,0,1-.469-6.9c0-1.449,0-3.025,0-4.772,0,0,.554-14.742.618-16.744l16.68,32.508h.916l17.49-33.659h0c0,.256.3,25.287.3,25.287V75.6c0,5.262-.554,5.752-5.88,6.391h0V83.1h18.363V81.99h-.107C145.364,81.308,145.13,81.01,144.917,74.108Z" transform="translate(105.05 48.312)" fill="#d19526" stroke="#d39d2f" stroke-width="0.58"/>
      <path id="Path_2397" data-name="Path 2397" d="M121.9,42.91v1.108h0c5.624.66,6.135,1.321,6.135,7.925V74.1c0,6.583-.511,7.264-6.135,7.925h0V83.13h18.3V82.022h-.107c-5.624-.66-6.157-1.342-6.157-7.925V51.964c0-6.6.533-7.264,6.157-7.925h.107V42.931H121.9Z" transform="translate(137.184 48.3)" fill="#d19526" stroke="#d39d2f" stroke-width="0.58"/>
      <path id="Path_2398" data-name="Path 2398" d="M164.359,73.106a33.872,33.872,0,0,1-3.941,6.071,12.121,12.121,0,0,1-7.967,2.365c-3.11,0-5.368,0-6.8-.959-1.108-.767-1.47-2.13-1.47-5.688V51.952c0-6.6.554-7.264,6.391-7.925h.107V42.92H132v1.108h.107c5.752.66,6.284,1.321,6.284,7.925V74.108c0,6.583-.533,7.264-6.284,7.925H132V83.14h31.166v-.107c.554-1.662,2.13-7.967,2.429-9.672v-.128l-1.257-.213Z" transform="translate(148.6 48.312)" fill="#d19526" stroke="#d39d2f" stroke-width="0.58"/>
      <path id="Path_2399" data-name="Path 2399" d="M180.381,73.042h0a34.086,34.086,0,0,1-3.92,6.071,12.207,12.207,0,0,1-7.967,2.365c-3.132,0-5.39,0-6.817-.959s-1.47-2.13-1.47-5.688V51.952c0-6.6.554-7.264,6.391-7.925h.128V42.92H148v1.108h.128c5.73.66,6.263,1.321,6.263,7.925V74.108c0,6.583-.533,7.264-6.263,7.925H148V83.14h31.166v-.107c.554-1.662,2.13-7.967,2.429-9.672v-.128Z" transform="translate(166.685 48.312)" fill="#d39d2f" stroke="#d39d2f" stroke-width="0.58"/>
      <path id="Path_2400" data-name="Path 2400" d="M8.58,49.447c0-7.989-.66-8.883-7.69-9.714V38.71h21.3v1.023c-6.689.831-7.35,1.726-7.35,9.714V62.228a217.924,217.924,0,0,0,20.089-18.64c1.342-1.555,1.747-2.578-.852-3.089l-3.835-.767V38.71H50.313v1.023A23.092,23.092,0,0,0,37.765,45.08c-3.685,2.6-10.2,8.223-16.893,14.23C28.5,67.405,37.765,76.352,41.536,79.7c5.177,4.836,6.007,5.645,10.034,6.157V86.9H39.47C35.507,82.956,20.3,67.469,14.95,62.356V76.139c0,8.01.66,8.9,7.776,9.714V86.9H1.423V85.853c6.6-.81,7.264-1.7,7.264-9.714Z" transform="translate(0.407 43.553)" fill="#fff" stroke="#fff" stroke-width="0.58"/>
      <path id="Path_2401" data-name="Path 2401" d="M22.52,42.44v1.193h.107c5.624.66,6.135,1.342,6.135,7.925V73.713c0,6.6-.511,7.264-6.135,7.925H22.52v1.108h18.3V81.637h-.107c-5.624-.66-6.157-1.321-6.157-7.925V51.472c0-6.583.533-7.264,6.157-7.925h.107V42.461H22.52Z" transform="translate(24.855 47.769)" fill="#fff" stroke="#fff" stroke-width="0.58"/>
      <path id="Path_2402" data-name="Path 2402" d="M64.353,42.44v1.193h.107c4.431.469,6.391,1.491,6.817,3.643a56.388,56.388,0,0,1,.916,11.674V73.883L42.667,42.44H32.42v1.193h0a9.863,9.863,0,0,1,6.114,2.6c1.214,1.342,1.278,1.64,1.278,6.86V66.321a58.073,58.073,0,0,1-.895,11.674c-.49,2.13-2.279,3.238-6.007,3.643H32.8v1.108H49.846V81.637h0c-4.431-.469-6.391-1.491-6.838-3.643a58.221,58.221,0,0,1-.895-11.674V49.747l30.911,33.36H74.3V58.865a56.388,56.388,0,0,1,.916-11.674c.469-2.13,2.279-3.238,5.986-3.643h.128V42.461H64.289Z" transform="translate(36.045 47.769)" fill="#fff" stroke="#fff" stroke-width="0.58"/>
      <path id="Path_2403" data-name="Path 2403" d="M82.038,66.179h0c7.52.788,7.733,1.491,7.733,5.517v5.922c0,2.769-.937,3.345-2.492,3.941a17.937,17.937,0,0,1-6.2.895c-13.74,0-18.6-10.865-18.6-20.153,0-11.376,6.753-18.7,17.213-18.7,7.776,0,12.441,3.132,14.656,9.863h0l1.257-.213V53.12c-.447-3.43-.831-6.625-1.129-9.522v-.107h0A59.138,59.138,0,0,0,81.314,42C68.532,42,55.58,49.392,55.58,63.473c0,11.951,10.651,20.621,25.329,20.621a64.868,64.868,0,0,0,14.7-2.343l.575-.149v-.128a25.755,25.755,0,0,1-.426-5.56v-4.09c0-4.261.32-4.687,4.069-5.517h0V65.2H82.038Z" transform="translate(62.223 47.272)" fill="#fff" stroke="#fff" stroke-width="0.58"/>
      <path id="Path_2404" data-name="Path 2404" d="M94.455,59.49c-5.794-2.365-9.16-4.58-9.16-8.8,0-3.366,2-6.966,7.648-6.966,6.519,0,8.521,4.878,9.949,8.415v.107l1.257-.234-.618-4.069-.554-4.495h0l-1.683-.426A23.71,23.71,0,0,0,94.455,42C84.7,42,80.246,47.9,80.246,53.4c0,6.391,7.094,9.373,10.5,10.8l1.023.447.937.426c3.728,1.662,8.372,3.728,8.372,9.352,0,4.857-3.2,7.754-8.521,7.754-6.625,0-10.651-5.475-12.782-10.076h0l-1.257.3.575,2.9a53.48,53.48,0,0,0,1.534,6.391h.192a36.51,36.51,0,0,0,3.558,1.236,28.972,28.972,0,0,0,6.54,1.044c8.777-.128,15.4-5.5,15.4-12.484C106.32,64.176,99.461,61.471,94.455,59.49Z" transform="translate(88.152 47.272)" fill="#fff" stroke="#fff" stroke-width="0.58"/>
      <path id="Path_2405" data-name="Path 2405" d="M144.514,73.616l-.639-22.155c-.213-6.689.192-7.2,6.135-7.925h0V42.45H139.3s-16.638,31.358-16.851,31.784C122.232,73.808,105.4,42.45,105.4,42.45H94.559v1.172h0c6.391.724,6.838,1.449,6.391,9.778l-.682,12.91A56.6,56.6,0,0,1,98.8,77.983c-.682,2.258-2.13,3.11-5.858,3.643h0v1.108h16.574V81.626h-.128c-4.559-.618-6.093-1.47-6.391-3.643a41.2,41.2,0,0,1-.469-6.9c0-1.427,0-3.025.128-4.751,0,0,.533-14.763.6-16.744.192.341,16.68,32.487,16.68,32.487h.831s17.426-33.51,17.49-33.659h0c0,.256.277,25.287.277,25.287v1.491c0,5.262-.554,5.773-5.858,6.391h-.128v1.108h18.363V81.584h0C144.962,80.838,144.706,80.54,144.514,73.616Z" transform="translate(104.451 47.78)" fill="#fff" stroke="#fff" stroke-width="0.58"/>
      <path id="Path_2406" data-name="Path 2406" d="M121.431,42.44v1.193h0c5.624.66,6.135,1.342,6.135,7.925V73.713c0,6.6-.511,7.264-6.135,7.925h0v1.108h18.278V81.637h0c-5.624-.66-6.135-1.321-6.135-7.925V51.472c0-6.583.511-7.264,6.135-7.925h0V42.461h-18.3Z" transform="translate(136.63 47.769)" fill="#fff" stroke="#fff" stroke-width="0.58"/>
      <path id="Path_2407" data-name="Path 2407" d="M163.891,72.636a33.127,33.127,0,0,1-3.941,6.05A12.1,12.1,0,0,1,152,81.051c-3.132,0-5.39,0-6.817-.959s-1.47-2.13-1.47-5.667V51.461c0-6.6.554-7.264,6.391-7.925h.107V42.45h-18.7v1.172h0c5.752.66,6.391,1.321,6.391,7.925V73.7c0,6.6-.533,7.264-6.391,7.925h0v1.108h31.166c.554-1.683,2.13-7.989,2.429-9.672v-.128l-1.257-.234Z" transform="translate(148.046 47.78)" fill="#fff" stroke="#fff" stroke-width="0.58"/>
      <path id="Path_2408" data-name="Path 2408" d="M179.9,72.551h0a34.32,34.32,0,0,1-3.941,6.05,12.164,12.164,0,0,1-7.967,2.365c-3.11,0-5.368,0-6.8-.959s-1.47-2.13-1.47-5.667V51.461c0-6.6.533-7.264,6.391-7.925h.107V42.45h-18.7v1.172h0c5.73.66,6.263,1.321,6.263,7.925V73.7c0,6.6-.533,7.264-6.263,7.925h0v1.108h31.166c.554-1.683,2.13-7.989,2.429-9.672v-.128Z" transform="translate(166.142 47.78)" fill="#fff" stroke="#fff" stroke-width="0.58"/>
      <path id="Path_2409" data-name="Path 2409" d="M8.242,49.087C8.242,41.1,7.56,40.2.53,39.394V38.35H21.939v1.044c-6.689.81-7.35,1.7-7.35,9.693V61.868a217.61,217.61,0,0,0,19.982-18.6c1.342-1.555,1.747-2.6-.831-3.132l-3.856-.724V38.371H49.953v1.044c-5.177.81-7.009,1.406-12.547,5.326-3.664,2.578-10.2,8.2-16.893,14.166C28.139,67,37.405,75.95,41.176,79.294,46.353,84.13,47.2,84.94,51.21,85.451V86.6H39.088c-3.92-3.92-19.066-19.428-24.5-24.541V75.843c0,8.01.66,8.9,7.776,9.714V86.6H.956V85.557c6.6-.81,7.286-1.7,7.286-9.714Z" transform="translate(0 43.146)" fill="#015645"/>
      <path id="Path_2410" data-name="Path 2410" d="M22.16,42.08v1.086h.107c5.624.66,6.135,1.342,6.135,7.946V73.268c0,6.6-.511,7.264-6.135,7.946H22.16v1.172h18.3V81.277h-.107c-5.624-.682-6.135-1.342-6.135-7.946v-22.2c0-6.6.511-7.286,6.135-7.946h.107V42.1H22.16Z" transform="translate(24.448 47.362)" fill="#015645"/>
      <path id="Path_2411" data-name="Path 2411" d="M63.993,42.08v1.108H64.1c4.431.469,6.391,1.491,6.838,3.664A57.987,57.987,0,0,1,71.833,58.5V73.523L42.307,42.08H32.06v1.086h0a9.991,9.991,0,0,1,6.263,2.62c1.214,1.342,1.278,1.662,1.278,6.881V65.9a57.987,57.987,0,0,1-.895,11.653c-.49,2.13-2.279,3.238-6.007,3.664h-.107v1.172H49.635V81.277h0c-4.431-.49-6.391-1.513-6.838-3.664A57.986,57.986,0,0,1,41.9,65.961V49.387l30.761,33.36h1.3V58.5a57.987,57.987,0,0,1,.895-11.653c.49-2.13,2.279-3.238,6.007-3.664h.064V42.08H63.993Z" transform="translate(35.638 47.362)" fill="#015645"/>
      <path id="Path_2412" data-name="Path 2412" d="M81.742,65.84h0c7.52.788,7.733,1.491,7.733,5.517V77.28c0,2.791-.937,3.345-2.492,3.941a17.384,17.384,0,0,1-6.2.916c-13.719,0-18.6-10.865-18.6-20.174,0-11.376,6.753-18.7,17.213-18.7,7.8,0,12.441,3.132,14.656,9.885v.107l1.278-.234v-.128c-.447-3.43-.831-6.625-1.108-9.522v-.106h0A57.518,57.518,0,0,0,80.954,41.64c-12.782,0-25.734,7.392-25.734,21.495,0,11.93,10.651,20.6,25.308,20.6a64.676,64.676,0,0,0,14.7-2.343l.575-.149v-.128a25.756,25.756,0,0,1-.4-5.56V71.294c0-4.261.3-4.687,4.048-5.517h0V64.69h-17.7Z" transform="translate(61.816 46.865)" fill="#015645"/>
      <path id="Path_2413" data-name="Path 2413" d="M94.061,59.164c-5.794-2.365-9.139-4.559-9.139-8.8,0-3.366,2-6.945,7.626-6.945,6.519,0,8.521,4.857,9.948,8.415h0l1.257-.234-.618-4.069-.66-4.495h0l-1.662-.426a23.838,23.838,0,0,0-6.689-1C84.3,41.674,79.916,47.6,79.916,53.092c0,6.391,7.094,9.373,10.5,10.8l1.044.447.937.426c3.728,1.662,8.351,3.728,8.351,9.373,0,4.836-3.2,7.733-8.521,7.733-6.647,0-10.651-5.475-12.782-10.076h0l-1.257.3.6,2.9A51.743,51.743,0,0,0,80.3,81.383h.213a29.355,29.355,0,0,0,3.536,1.236,28.972,28.972,0,0,0,6.519,1.15c8.8-.128,15.4-5.5,15.4-12.484C105.926,63.872,99.088,61.145,94.061,59.164Z" transform="translate(87.779 46.831)" fill="#015645"/>
      <path id="Path_2414" data-name="Path 2414" d="M144.154,73.256l-.639-22.134c-.192-6.71.213-7.222,6.135-7.946h0V42.09H138.829s-16.616,31.379-16.851,31.784L104.936,42.09H94.2V43.2h0c6.391.724,6.838,1.449,6.391,9.778l-.682,12.91A58.753,58.753,0,0,1,98.46,77.559c-.7,2.258-2.13,3.11-5.88,3.664h0v1.15h16.574V81.287h-.128c-4.559-.639-6.071-1.491-6.391-3.664a41.284,41.284,0,0,1-.447-6.881c0-1.449,0-3.046,0-4.772,0,0,.533-14.763.618-16.744l16.659,32.487h.916s17.426-33.51,17.49-33.659h0c0,.256.277,25.287.277,25.287v1.513c0,5.262-.533,5.752-5.858,6.391h0v1.129h18.363V81.266h0C144.6,80.478,144.367,80.244,144.154,73.256Z" transform="translate(104.044 47.374)" fill="#015645"/>
      <path id="Path_2415" data-name="Path 2415" d="M121.06,42.08v1.086h.128c5.6.66,6.135,1.342,6.135,7.946V73.268c0,6.6-.533,7.264-6.135,7.946h-.128v1.172h18.321V81.277h-.128c-5.624-.682-6.135-1.342-6.135-7.946v-22.2c0-6.6.511-7.286,6.135-7.946h.128V42.1H121.06Z" transform="translate(136.235 47.362)" fill="#015645"/>
      <path id="Path_2416" data-name="Path 2416" d="M163.463,72.288a34.316,34.316,0,0,1-3.941,6.071,12.1,12.1,0,0,1-7.946,2.365c-3.132,0-5.39,0-6.8-.98s-1.47-2.13-1.47-5.667V51.134c0-6.6.533-7.286,6.391-7.946h.234V42.08H131.21v1.108h.128c5.73.66,6.263,1.342,6.263,7.946V73.268c0,6.6-.533,7.264-6.263,7.946h-.128v1.172h31.166c.554-1.662,2.13-7.967,2.429-9.672v-.128l-1.257-.234Z" transform="translate(147.707 47.362)" fill="#015645"/>
      <path id="Path_2417" data-name="Path 2417" d="M179.551,72.2h0a36.959,36.959,0,0,1-3.941,6.071,12.121,12.121,0,0,1-7.967,2.365c-3.11,0-5.368,0-6.8-.98-1.108-.746-1.47-2.13-1.47-5.667V51.134c0-6.6.533-7.286,6.391-7.946h.107V42.08h-18.7v1.108h.107c5.752.66,6.284,1.342,6.284,7.946V73.268c0,6.6-.533,7.264-6.284,7.946h-.107v1.172h31.166c.575-1.662,2.13-7.967,2.429-9.672v-.128Z" transform="translate(165.747 47.362)" fill="#015645"/>
      <path id="Path_2418" data-name="Path 2418" d="M94.393,68.554A45.461,45.461,0,0,0,83.081,80.42c-5.624,7.712-11.908,13.847-21.069,13.847a15.744,15.744,0,0,1-1.875-2.62c-2.961-4.964-1.512-12.782,3.323-17.958a26.629,26.629,0,0,1,21.3-7.35A24.392,24.392,0,0,1,94.393,68.554Zm7.392-2.3c0-.32-1.406-.32-2.343,0a16.574,16.574,0,0,0-4.665,2.13,26.117,26.117,0,0,0-10.417-2.663c-9.991-.66-18.257,2.13-23.263,7.392a15.509,15.509,0,0,0-1.683,18.874,11.078,11.078,0,0,0,1.7,2.322H55.856c-1.917,0-5.113.234-4.261,1.576.341.639,3.132.767,7.307,0a21.961,21.961,0,0,1,2.9-.533,15.913,15.913,0,0,0,11.44,4.687c5.113.128,9.011-2.62,8.2-6.05-.128-.277-.128-.767-.383-.81s-.192,0-.234.234c-.7,1.534-3.132,2.3-6.689,2.13-3.132-.128-7.264-.533-9.331-.767,7.179-.618,14.784-3.366,21.921-13.826,1.981-2.94,4.261-7.9,8.67-11.461a5.581,5.581,0,0,1,2.13,6.668A7.328,7.328,0,0,1,90.09,80.8a4.9,4.9,0,0,0-1.257-.746c-.511-.107-.98-.149-1.129.17s.682.724,1.363.81a40.475,40.475,0,0,0-.426,6.583c.192,3.43.831,6.987,4.388,8.074a4.452,4.452,0,0,0,5.006-1.7s.149-.32,0-.4a.275.275,0,0,0-.383.128,2.471,2.471,0,0,1-3.536.511c-.852-.6-1.96-2.407-2.727-6.391a48.271,48.271,0,0,1-.852-6.753c4.452,0,8.266-1.726,9.373-4.261s-1.491-6.391-4.048-7.967a13.336,13.336,0,0,1,4.261-2.258c.937-.17,1.726-.064,1.662-.3ZM80.972,93.947c.234,2.876-3.366,5.411-7.861,5.219a14.635,14.635,0,0,1-10.524-4.261,7.221,7.221,0,0,1,1.385,0,96.467,96.467,0,0,0,10.651,1.363c3.984-.021,5.688-1.193,6.348-2.279Z" transform="translate(57.559 73.975)" fill="#ecc15b" stroke="#edc35d" stroke-width="0.58"/>
      <path id="Path_2419" data-name="Path 2419" d="M85.692,73.826c.724.362,0,1.619-1.278,2.791a7.861,7.861,0,0,1-5.368,2.13C80.9,76.531,84.776,73.378,85.692,73.826Zm.149-.4C83.413,72.505,77.9,75.4,74.977,78.64c-2.429,2.812-2.13,5.028-1.832,5.88a3.9,3.9,0,0,0,3.707,2.429,9.97,9.97,0,0,0,6.114-2.13,32.6,32.6,0,0,0,4.751-4.261c.149-.192.341-.4,0-.639a.575.575,0,0,0-.724.192,27.693,27.693,0,0,1-5.283,4.538,7.456,7.456,0,0,1-5.07,1.449c-2.471-.724-.213-4.644,2.13-7.264a10.417,10.417,0,0,0,6.561-1.576c1.7-1.086,2.812-2.982.511-3.834Z" transform="translate(81.853 82.593)" fill="#edc35d" stroke="#ecc15b" stroke-width="0.58"/>
      <path id="Path_2420" data-name="Path 2420" d="M87.543,77.552a12.569,12.569,0,0,1-1.811,7.35A6.391,6.391,0,0,1,80.6,87.82c-.7,0-1.64-.256-1.853-.895s0-1.044.66-1.576,1.683-1.129,2.13-1.534c1.108-.724,1.768-1.449,1.747-1.853a31.507,31.507,0,0,0,4.261-4.41Zm5.517-5.773c-.895-.447-1.9.128-3.259,1.576a14.912,14.912,0,0,0-2.365,3.2,36.728,36.728,0,0,1-4.623,4.964,3.323,3.323,0,0,0-2.13,1.321c-.49.447-1.363,1.3-1.747,1.619a2.535,2.535,0,0,0-.895,2.62,3.643,3.643,0,0,0,3.515,1.7,14.912,14.912,0,0,0,5.581-.959,25.01,25.01,0,0,0,7.69-5.3.32.32,0,0,0,0-.554c-.32-.17-.469-.128-.575,0a25.031,25.031,0,0,1-7.69,5.368c3.941-2.663,2.429-6.22,2-8.287a3.515,3.515,0,0,1,0-2.3,17.767,17.767,0,0,1,2.94-2.13c1.9-1.449,2.173-2.514,1.555-2.833Z" transform="translate(87.523 80.763)" fill="#edc35d" stroke="#edc25c" stroke-width="0.58"/>
      <path id="Path_2421" data-name="Path 2421" d="M98.519,74c1.406.682-.682,4.111-2.13,5.922C93,84.06,90,86.914,88.229,86.318s-.362-3.323,1.726-6.093C93.363,75.9,96.942,73.238,98.519,74Zm0-.533c-2.876-.98-8.521,1.257-11.546,5.006S84.5,86.233,88.272,87c2.322.4,5.986-1.853,9.2-5.88s3.2-6.923,1.129-7.648Z" transform="translate(95.506 82.584)" fill="#edc25c" stroke="#edc25c" stroke-width="0.58"/>
      <path id="Path_2422" data-name="Path 2422" d="M102.409,73.488c-1.023.575-1.981,1.257-1.768,1.7s1.3.575,1.747.682c1.363.32,2.13.81,2.279,1.576.341,1.768-1.513,4.154-2.684,5.283a22.92,22.92,0,0,0-3.153,3.749c-.575.895-.383,1.513,0,1.7,1.065.4,3.472-1.172,4.516-1.939a46.069,46.069,0,0,0,4.261-4.026c.192,0,.341-.256.682,0a.32.32,0,0,1,0,.511,50.43,50.43,0,0,1-4.559,4.09,9.544,9.544,0,0,1-4.559,2.13,2.727,2.727,0,0,1-2.663-1.619c-.767-1.853.32-4.026,2.833-6.5,1.513-1.491,3.536-3.515,3.281-3.984s-.618-.341-1.576-.66a5.027,5.027,0,0,1-1.3-.6c-.852,1.086-1.768,2.258-2.727,3.43-1.321,1.534-3.238,3.43-4.474,4.687a1.193,1.193,0,0,1-.873-.17.9.9,0,0,1-.192-1c1.321-1.3,3.366-2.429,4.644-3.92a43.679,43.679,0,0,0,3.025-3.643c-.277-.639.213-1.6,1.15-2.45a5.283,5.283,0,0,1,2.13-.98,5.752,5.752,0,0,1,2.258,0C105.583,71.805,103.048,73.126,102.409,73.488Z" transform="translate(102.715 80.545)" fill="#edc25c" stroke="#edc25c" stroke-width="0.58"/>
      <path id="Path_2423" data-name="Path 2423" d="M118.174,69.727a10.14,10.14,0,0,0-3.792,1.853,49.611,49.611,0,0,0-6.2,6.071h4.261s.426,0,.426.32-.3.234-.533.234c-1.044,0-3.515,0-4.793.128-.682.81-1.342,1.619-2,2.471-3.813,4.836-5.667,7.861-3.771,8.521,1.172.447,3.238-.767,4.623-1.9a56.088,56.088,0,0,0,4.261-4.111.618.618,0,0,1,.746-.128c.362.256,0,.49,0,.724a57.362,57.362,0,0,1-4.516,4.261,6.881,6.881,0,0,1-5.667,1.939,3.046,3.046,0,0,1-2.3-4.026,31.763,31.763,0,0,1,5.2-7.754l-3.323.192c-.17,0-.618,0-.682-.234s.277-.277.49-.32c.66,0,2.642-.17,4.069-.213a29.185,29.185,0,0,1,7.413-6.732,13.782,13.782,0,0,1,2.705-1.172,13.165,13.165,0,0,1,3.366-.277Z" transform="translate(111.001 78.427)" fill="#edc25c" stroke="#edc25c" stroke-width="0.27"/>
      <path id="Path_2424" data-name="Path 2424" d="M94.2,68.047A45.46,45.46,0,0,0,82.891,79.912c-5.645,7.712-11.93,13.847-21.069,13.847a15.827,15.827,0,0,1-1.9-2.62c-2.961-4.964-1.491-12.782,3.323-17.958a26.714,26.714,0,0,1,21.3-7.328,24.307,24.307,0,0,1,9.65,2.194Zm7.392-2.3c0-.32-1.406-.32-2.343,0a17.042,17.042,0,0,0-4.687,2.13,25.883,25.883,0,0,0-10.417-2.663c-9.97-.682-18.235,2.13-23.242,7.413a15.487,15.487,0,0,0-1.683,18.747,11.482,11.482,0,0,0,1.683,2.279H55.666c-1.917,0-5.113.234-4.261,1.576.341.639,3.132.767,7.307,0a25.885,25.885,0,0,1,2.876-.533,16,16,0,0,0,11.461,4.687c5.113.128,8.99-2.62,8.18-6.05-.128-.277,0-.767-.362-.81s-.192,0-.256.234c-.682,1.534-3.11,2.279-6.689,2.13-3.132-.149-7.243-.554-9.309-.788,7.179-.618,14.784-3.366,21.921-13.847,1.96-2.919,4.261-7.882,8.67-11.44a5.581,5.581,0,0,1,2.13,6.668A7.307,7.307,0,0,1,89.9,80.126a4.538,4.538,0,0,0-1.342-.533c-.511,0-1-.149-1.15.17s.682.724,1.363.81a43.347,43.347,0,0,0-.4,6.6c.17,3.408.81,6.966,4.388,8.053a4.474,4.474,0,0,0,5.006-1.7s.128-.32,0-.4a.312.312,0,0,0-.4.128,2.45,2.45,0,0,1-3.536.49c-.852-.575-1.96-2.386-2.727-6.391a47.271,47.271,0,0,1-.831-6.774c4.452.107,8.244-1.7,9.373-4.261s-1.491-6.391-4.048-7.967a13.441,13.441,0,0,1,4.261-2.258c1.023-.3,1.789-.106,1.747-.341ZM80.782,93.44c.213,2.876-3.387,5.411-7.861,5.219A14.592,14.592,0,0,1,62.4,94.4a7.073,7.073,0,0,1,1.363,0,92.067,92.067,0,0,0,10.652,1.363c3.984-.021,5.581-1.236,6.37-2.322Z" transform="translate(57.344 73.396)" fill="#015645"/>
      <path id="Path_2425" data-name="Path 2425" d="M85.468,73.3c.746.362,0,1.619-1.257,2.791a7.9,7.9,0,0,1-5.368,2.13C80.7,75.987,84.574,72.834,85.468,73.3Zm.17-.4c-2.45-.895-7.946,1.981-10.865,5.219a6.029,6.029,0,0,0-1.853,5.837,3.984,3.984,0,0,0,3.728,2.429,9.841,9.841,0,0,0,6.113-2.13,31.1,31.1,0,0,0,4.73-4.261c.149-.192.341-.4,0-.639s-.575,0-.724.192a28.227,28.227,0,0,1-5.262,4.538,7.477,7.477,0,0,1-5.07,1.449c-2.471-.724-.213-4.644,2.13-7.264a10.5,10.5,0,0,0,6.583-1.576c1.683-1.065,2.791-2.961.49-3.813Z" transform="translate(81.651 82.009)" fill="#015645"/>
      <path id="Path_2426" data-name="Path 2426" d="M87.414,77.022a12.782,12.782,0,0,1-1.789,7.35,6.391,6.391,0,0,1-5.155,2.919c-.682,0-1.619-.256-1.853-.895s0-1.023.66-1.576,1.7-1.129,2.13-1.534c1.108-.724,1.768-1.449,1.747-1.853A30.06,30.06,0,0,0,87.414,77.022Zm5.539-5.773c-.895-.447-1.917.128-3.281,1.576a14.912,14.912,0,0,0-2.365,3.2A36.723,36.723,0,0,1,82.6,80.984a3.323,3.323,0,0,0-2.13,1.321l-1.747,1.619c-.873.895-1.236,1.9-.895,2.6a3.579,3.579,0,0,0,3.494,1.726A14.379,14.379,0,0,0,86.9,87.29a25.073,25.073,0,0,0,7.712-5.3.341.341,0,0,0,0-.554c-.32-.17-.469-.128-.6,0a25.309,25.309,0,0,1-7.648,5.432c3.941-2.684,2.429-6.242,2-8.308a3.515,3.515,0,0,1,0-2.3,17.766,17.766,0,0,1,2.94-2.13C93.251,72.655,93.549,71.547,92.952,71.249Z" transform="translate(87.226 80.164)" fill="#015645"/>
      <path id="Path_2427" data-name="Path 2427" d="M98.322,73.479c1.406.682-.66,4.111-2.13,5.922-3.366,4.261-6.391,6.987-8.138,6.391s-.383-3.323,1.726-6.093C93.167,75.46,96.767,72.712,98.322,73.479Zm0-.533c-2.876-1-8.521,1.257-11.546,5.006s-2.492,7.754,1.3,8.521c2.322.4,5.986-1.853,9.182-5.858s3.238-6.945,1.172-7.669Z" transform="translate(95.277 81.982)" fill="#015645"/>
      <path id="Path_2428" data-name="Path 2428" d="M101.939,72.958c-1,.575-1.96,1.257-1.768,1.7s1.321.6,1.768.682c1.363.32,2.13.81,2.279,1.576.341,1.768-1.513,4.261-2.684,5.283a21.9,21.9,0,0,0-3.153,3.813c-.575.916-.4,1.534,0,1.726,1.044.4,3.451-1.172,4.495-1.939a58.478,58.478,0,0,0,4.452-4.048c.192,0,.341-.256.682,0a.32.32,0,0,1,0,.511,50.425,50.425,0,0,1-4.559,4.09,9.65,9.65,0,0,1-4.559,2.13,2.727,2.727,0,0,1-2.663-1.619c-.788-1.853.3-4.026,2.833-6.5,1.513-1.491,3.536-3.515,3.281-3.984s-.639-.341-1.6-.66a4.687,4.687,0,0,1-1.3-.6c-.831,1.086-1.747,2.258-2.727,3.43-1.321,1.534-3.238,3.43-4.452,4.687a.618.618,0,0,1-.66,0,.3.3,0,0,1,0-.533c1.3-1.321,2.961-3.025,4.261-4.516a37.687,37.687,0,0,0,3.153-3.771c-.3-.618.192-1.555,1.15-2.429a5.113,5.113,0,0,1,2.13-.98,5.751,5.751,0,0,1,2.258,0C105.113,71.3,102.6,72.6,101.939,72.958Z" transform="translate(102.759 79.946)" fill="#015645"/>
      <path id="Path_2429" data-name="Path 2429" d="M117.762,69.544a12.782,12.782,0,0,0-4.261,1.768,49.253,49.253,0,0,0-6.071,6.029c.767,0,3.281,0,4.6.149,0,0,.426,0,.426.32s-.3.213-.533.213c-1.044,0-3.707-.554-4.793.149a9.885,9.885,0,0,0-2.578,2.258c-3.813,4.814-5.091,8.053-3.217,8.777,1.193.469,3.238-.746,4.644-1.875a56.085,56.085,0,0,0,4.261-4.111.618.618,0,0,1,.746-.128c.362.256,0,.49,0,.7a49.949,49.949,0,0,1-4.495,4.261,6.817,6.817,0,0,1-5.667,1.939,3.025,3.025,0,0,1-2.3-4,31.358,31.358,0,0,1,5.2-7.754l-3.323.17c-.17,0-.618,0-.682-.213s.277-.277.49-.32c.66,0,2.642-.192,4.069-.234a29.4,29.4,0,0,1,7.286-6.71,12.633,12.633,0,0,1,2.705-1.172,12.27,12.27,0,0,1,3.366-.277Z" transform="translate(110.56 78.311)" fill="#015645"/>
      <path id="Path_2430" data-name="Path 2430" d="M81.526,65,60.649,73.266A14.23,14.23,0,0,0,56.772,83v1.236A19.173,19.173,0,0,1,61.757,72.69a20.344,20.344,0,0,1,3.856-3.217,20.11,20.11,0,0,0-4.964,3.771ZM82.7,80.615a44.289,44.289,0,0,1-9.8,10.247A31.038,31.038,0,0,0,85.041,79.784L86.447,77.5a45.074,45.074,0,0,1,4.261-6.2,57.859,57.859,0,0,0-8.01,9.288Zm15.146-7.094a5.9,5.9,0,0,1-.49,2.322,8.67,8.67,0,0,1-1.6,2.471,5.432,5.432,0,0,0,2.386-2.3,2.684,2.684,0,0,0,.234-1.086,4.729,4.729,0,0,0-.639-2.13C97.759,73.159,97.844,73.351,97.844,73.521ZM88.449,86.3V87.2c.149,3.217.724,6.391,3.771,7.264a1.662,1.662,0,0,1,.3,0,11.887,11.887,0,0,1-3-6.838,49.848,49.848,0,0,1-.788-5.922,42.975,42.975,0,0,0-.277,4.6ZM58.391,91.757ZM52,94.824a15.743,15.743,0,0,0,3.941-.234H54.855A13.4,13.4,0,0,0,52,94.824Z" transform="translate(58.176 73.269)" fill="#015645" stroke="#015645" stroke-width="0.1"/>
      <path id="Path_2431" data-name="Path 2431" d="M86.97,73h0a8.843,8.843,0,0,0-.575.682l.256-.17,1.023-.7a4.857,4.857,0,0,0,1.321-1.278C88.631,71.551,88.035,71.85,86.97,73ZM82.986,84.44A7.755,7.755,0,0,1,80.6,86.7a4.9,4.9,0,0,0,2.13-.916,4.751,4.751,0,0,0,2.322-4.048,8.2,8.2,0,0,0-.234-1.768,11.909,11.909,0,0,1-1.832,4.474Z" transform="translate(90.503 80.649)" fill="#015645" stroke="#015645" stroke-width="0.1"/>
      <path id="Path_2432" data-name="Path 2432" d="M86.985,77.778a6.966,6.966,0,0,0-1.7,4.133,3,3,0,0,0,.149,1,2.131,2.131,0,0,0,.447.788,10.652,10.652,0,0,1,2.769-5.39A28.758,28.758,0,0,1,93.5,73.39,14.38,14.38,0,0,0,86.985,77.778Z" transform="translate(95.792 82.752)" fill="#015645" stroke="#015645" stroke-width="0.1"/>
      <path id="Path_2433" data-name="Path 2433" d="M97.728,71.873h0L98,71.66Zm-.895,8.244A7.6,7.6,0,0,0,94,84.74a2.322,2.322,0,0,0,.17.831s.128,0,.17.17a2.9,2.9,0,0,1,.447-1.172,23.091,23.091,0,0,1,3.259-3.877,7.52,7.52,0,0,0,2.471-4.261,1.044,1.044,0,0,0,0-.256,3.129,3.129,0,0,1-.213-.234,14.593,14.593,0,0,1-3.472,4.175Z" transform="translate(105.649 80.796)" fill="#015645" stroke="#015645" stroke-width="0.1"/>
      <path id="Path_2434" data-name="Path 2434" d="M111.675,70.667l-.256.128a29.079,29.079,0,0,0-7.03,6.519,42.606,42.606,0,0,0-5.581,8.031,2.408,2.408,0,0,0-.128.767,1.853,1.853,0,0,0,.213.895,1.534,1.534,0,0,0,.426.49.874.874,0,0,1,0-.234c0-1.534,1.342-3.792,4.729-8.1L106.6,75.95a48.551,48.551,0,0,1,5.539-5.56Z" transform="translate(110.938 79.361)" fill="#015645" stroke="#015645" stroke-width="0.1"/>
      <path id="Path_2435" data-name="Path 2435" d="M149.479,10.323c21.963,13.527,21.963,35.491,0,49s-57.518,13.549-79.588,0-21.963-35.491,0-49S127.494-3.226,149.479,10.323Z" transform="translate(59.735 0)" fill="url(#linear-gradient)"/>
      <path id="Path_2436" data-name="Path 2436" d="M148.2,10.428c21.58,13.314,21.58,34.894,0,48.209-25.18,15.551-60.16,11.1-78.139,0-21.58-13.314-21.58-34.894,0-48.209S126.574-2.886,148.2,10.428Z" transform="translate(60.293 0.3)" fill="url(#linear-gradient-2)"/>
      <path id="Path_2437" data-name="Path 2437" d="M57.12,34.162C57.12,15.713,78.764.78,105.456.78s48.336,14.912,48.336,33.382-21.644,33.36-48.336,33.36S57.12,52.589,57.12,34.162Z" transform="translate(63.963 0.681)" fill="url(#linear-gradient-3)"/>
      <path id="Path_2438" data-name="Path 2438" d="M57.68,33.28c0-17.532,21.111-31.72,47.143-31.72s47.143,14.188,47.143,31.72-21.175,31.7-47.143,31.7S57.68,50.791,57.68,33.28Z" transform="translate(64.596 1.563)" fill="url(#linear-gradient-4)"/>
      <path id="Path_2439" data-name="Path 2439" d="M149.253,32.865c0,17.042-20.323,30.975-45.4,30.975s-45.4-13.868-45.4-30.975S78.783,1.89,103.857,1.89,149.253,15.758,149.253,32.865Z" transform="translate(65.478 1.936)" fill="url(#linear-gradient-5)"/>
      <path id="Path_2440" data-name="Path 2440" d="M60.62,31.257C60.62,15.876,78.962,3.35,101.5,3.35s40.88,12.526,40.88,27.907S124.039,59.142,101.5,59.142,60.62,46.638,60.62,31.257Z" transform="translate(67.92 3.586)"/>
      <path id="Path_2441" data-name="Path 2441" d="M61.22,30.793c0-14.912,17.767-27.033,39.6-27.033s39.6,12.121,39.6,27.033-17.767,27.012-39.6,27.012S61.22,45.684,61.22,30.793Z" transform="translate(68.598 4.049)" fill="#015645"/>
      <path id="Path_2442" data-name="Path 2442" d="M60.32,31.494c0,15.615,18.619,28.333,41.519,28.333s41.519-12.782,41.519-28.333S124.74,3.14,101.839,3.14,60.32,15.858,60.32,31.494Zm.639,0c0-15.381,18.342-27.907,40.88-27.907s40.88,12.526,40.88,27.907S124.378,59.38,101.839,59.38,60.959,46.875,60.959,31.494Z" transform="translate(67.58 3.349)" fill="url(#linear-gradient-6)"/>
      <path id="Path_2443" data-name="Path 2443" d="M80.672,2.07c0,.511-.362,1.9-.6,1.9S79.5,2.581,79.5,2.07Z" transform="translate(89.26 2.139)" fill="url(#linear-gradient-7)"/>
      <path id="Path_2444" data-name="Path 2444" d="M79.633,2.08c0,.511-.213,1.917-.447,1.917s-.7-1.363-.746-1.875Z" transform="translate(88.061 2.15)" fill="url(#linear-gradient-8)"/>
      <path id="Path_2445" data-name="Path 2445" d="M78.483,2.13c0,.511,0,1.917-.3,1.939s-.81-1.363-.895-1.853Z" transform="translate(86.762 2.207)" fill="url(#linear-gradient-9)"/>
      <path id="Path_2446" data-name="Path 2446" d="M77.372,2.22a6.651,6.651,0,0,1-.149,1.939A5.191,5.191,0,0,1,76.2,2.327Z" transform="translate(85.53 2.309)" fill="url(#linear-gradient-10)"/>
      <path id="Path_2447" data-name="Path 2447" d="M76.27,2.34c.149.511.234,1.917,0,1.96s-1-1.278-1.15-1.789Z" transform="translate(84.309 2.444)" fill="url(#linear-gradient-11)"/>
      <path id="Path_2448" data-name="Path 2448" d="M75.179,2.51c.213.49.383,1.9.17,1.939S74.242,3.213,74.05,2.7Z" transform="translate(83.099 2.636)" fill="url(#linear-gradient-12)"/>
      <path id="Path_2449" data-name="Path 2449" d="M74.119,2.71c.234.49.511,1.9.3,1.939S73.224,3.456,72.99,2.966Z" transform="translate(81.901 2.862)" fill="url(#linear-gradient-13)"/>
      <path id="Path_2450" data-name="Path 2450" d="M73.068,3c.256.49.66,1.875.447,1.939s-1.3-1.172-1.555-1.64Z" transform="translate(80.737 3.19)" fill="url(#linear-gradient-14)"/>
      <path id="Path_2451" data-name="Path 2451" d="M72.015,3.23c.3.469.81,1.853.6,1.917S71.248,4.04,70.95,3.571Z" transform="translate(79.596 3.45)" fill="url(#linear-gradient-15)"/>
      <path id="Path_2452" data-name="Path 2452" d="M71,3.55c.341.447.937,1.811.746,1.875S70.28,4.381,69.96,3.912Z" transform="translate(78.477 3.812)" fill="url(#linear-gradient-16)"/>
      <path id="Path_2453" data-name="Path 2453" d="M70.013,3.9c.383.447,1.086,1.768.895,1.853s-1.534-1-1.917-1.449Z" transform="translate(77.38 4.208)" fill="url(#linear-gradient-17)"/>
      <path id="Path_2454" data-name="Path 2454" d="M69.04,4.29c.4.426,1.214,1.726,1.023,1.811a6.519,6.519,0,0,1-2-1.385Z" transform="translate(76.329 4.648)" fill="url(#linear-gradient-18)"/>
      <path id="Path_2455" data-name="Path 2455" d="M68.13,4.7c.426.426,1.342,1.683,1.15,1.789a6.881,6.881,0,0,1-2.13-1.3Z" transform="translate(75.3 5.112)" fill="url(#linear-gradient-19)"/>
      <path id="Path_2456" data-name="Path 2456" d="M67.161,5.15c.469.4,1.47,1.64,1.3,1.747a7.477,7.477,0,0,1-2.13-1.236Z" transform="translate(74.374 5.62)" fill="url(#linear-gradient-20)"/>
      <path id="Path_2457" data-name="Path 2457" d="M66.333,5.64c.511.362,1.6,1.576,1.427,1.683a8.138,8.138,0,0,1-2.3-1.15Z" transform="translate(73.39 6.174)" fill="url(#linear-gradient-21)"/>
      <path id="Path_2458" data-name="Path 2458" d="M65.5,6.15c.533.341,1.726,1.513,1.555,1.619A7.69,7.69,0,0,1,64.67,6.7Z" transform="translate(72.497 6.751)" fill="url(#linear-gradient-22)"/>
      <path id="Path_2459" data-name="Path 2459" d="M64.708,6.68c.554.362,1.832,1.47,1.683,1.576a7.925,7.925,0,0,1-2.471-.895Z" transform="translate(71.65 7.35)" fill="url(#linear-gradient-23)"/>
      <path id="Path_2460" data-name="Path 2460" d="M63.956,7.25c.575.32,1.939,1.385,1.811,1.513a8.521,8.521,0,0,1-2.556-.873Z" transform="translate(70.847 7.994)" fill="url(#linear-gradient-24)"/>
      <path id="Path_2461" data-name="Path 2461" d="M63.253,7.84c.6.3,2.13,1.321,1.917,1.449A8.969,8.969,0,0,1,62.55,8.5Z" transform="translate(70.101 8.661)" fill="url(#linear-gradient-25)"/>
      <path id="Path_2462" data-name="Path 2462" d="M62.579,8.46c.639.277,2.13,1.236,2.024,1.363a9.885,9.885,0,0,1-2.663-.682Z" transform="translate(69.412 9.362)" fill="url(#linear-gradient-26)"/>
      <path id="Path_2463" data-name="Path 2463" d="M61.955,9.1c.66.256,2.237,1.15,2.13,1.3a9.672,9.672,0,0,1-2.705-.618Z" transform="translate(68.779 10.085)" fill="url(#linear-gradient-27)"/>
      <path id="Path_2464" data-name="Path 2464" d="M61.438,9.75a7.158,7.158,0,0,1,2.13,1.214,9.075,9.075,0,0,1-2.748-.49Z" transform="translate(68.146 10.82)" fill="url(#linear-gradient-28)"/>
      <path id="Path_2465" data-name="Path 2465" d="M60.869,10.43a8.266,8.266,0,0,1,2.322,1.129,9.4,9.4,0,0,1-2.791-.4Z" transform="translate(67.671 11.588)" fill="url(#linear-gradient-29)"/>
      <path id="Path_2466" data-name="Path 2466" d="M60.4,11.12a7.754,7.754,0,0,1,2.386,1.065,10.289,10.289,0,0,1-2.791-.3Z" transform="translate(67.219 12.368)" fill="url(#linear-gradient-30)"/>
      <path id="Path_2467" data-name="Path 2467" d="M60,11.83a8.159,8.159,0,0,1,2.471.959A10.268,10.268,0,0,1,59.64,12.6Z" transform="translate(66.812 13.171)" fill="url(#linear-gradient-31)"/>
      <path id="Path_2468" data-name="Path 2468" d="M59.638,12.55a8.351,8.351,0,0,1,2.535.873,9.544,9.544,0,0,1-2.833-.107Z" transform="translate(66.473 13.985)" fill="url(#linear-gradient-32)"/>
      <path id="Path_2469" data-name="Path 2469" d="M59.346,13.28a9.011,9.011,0,0,1,2.6.788,10.311,10.311,0,0,1-2.855,0Z" transform="translate(66.19 14.81)" fill="url(#linear-gradient-33)"/>
      <path id="Path_2470" data-name="Path 2470" d="M59.09,14a8.734,8.734,0,0,1,2.663.682,9.991,9.991,0,0,1-2.833.107Z" transform="translate(65.998 15.624)" fill="url(#linear-gradient-34)"/>
      <path id="Path_2471" data-name="Path 2471" d="M58.887,14.76a9.373,9.373,0,0,1,2.727.6,9.863,9.863,0,0,1-2.833.213Z" transform="translate(65.84 16.483)" fill="url(#linear-gradient-35)"/>
      <path id="Path_2472" data-name="Path 2472" d="M58.764,15.51a9.1,9.1,0,0,1,2.769.511,10.652,10.652,0,0,1-2.833.3Z" transform="translate(65.749 17.33)" fill="url(#linear-gradient-36)"/>
      <path id="Path_2473" data-name="Path 2473" d="M58.69,16.26a10.076,10.076,0,0,1,2.791.4,9.331,9.331,0,0,1-2.791.4Z" transform="translate(65.738 18.178)" fill="url(#linear-gradient-37)"/>
      <path id="Path_2474" data-name="Path 2474" d="M58.7,17.006a9.139,9.139,0,0,1,2.833.3,9.991,9.991,0,0,1-2.769.49Z" transform="translate(65.749 19.008)" fill="url(#linear-gradient-38)"/>
      <path id="Path_2475" data-name="Path 2475" d="M58.77,17.785a10.225,10.225,0,0,1,2.855.192,9.373,9.373,0,0,1-2.727.6Z" transform="translate(65.828 19.87)" fill="url(#linear-gradient-39)"/>
      <path id="Path_2476" data-name="Path 2476" d="M58.9,18.573a10.31,10.31,0,0,1,2.855,0,8.521,8.521,0,0,1-2.663.7Z" transform="translate(65.975 20.68)" fill="url(#linear-gradient-40)"/>
      <path id="Path_2477" data-name="Path 2477" d="M59.09,19.313a10.31,10.31,0,0,1,2.855,0,9.011,9.011,0,0,1-2.6.788Z" transform="translate(66.19 21.516)" fill="url(#linear-gradient-41)"/>
      <path id="Path_2478" data-name="Path 2478" d="M59.34,20.052a10.332,10.332,0,0,1,2.833,0,8.223,8.223,0,0,1-2.535.895Z" transform="translate(66.473 22.354)" fill="url(#linear-gradient-42)"/>
      <path id="Path_2479" data-name="Path 2479" d="M59.64,20.847a9.65,9.65,0,0,1,2.833-.213,8.649,8.649,0,0,1-2.471.98Z" transform="translate(66.812 23.093)" fill="url(#linear-gradient-43)"/>
      <path id="Path_2480" data-name="Path 2480" d="M60,21.591a10.289,10.289,0,0,1,2.812-.3,7.861,7.861,0,0,1-2.386,1.044Z" transform="translate(67.219 23.861)" fill="url(#linear-gradient-44)"/>
      <path id="Path_2481" data-name="Path 2481" d="M60.4,22.345a9.4,9.4,0,0,1,2.791-.4,7.626,7.626,0,0,1-2.322,1.15Z" transform="translate(67.671 24.598)" fill="url(#linear-gradient-45)"/>
      <path id="Path_2482" data-name="Path 2482" d="M60.86,23.07a9.8,9.8,0,0,1,2.748-.49,7.158,7.158,0,0,1-2.13,1.214Z" transform="translate(68.191 25.321)" fill="url(#linear-gradient-46)"/>
      <path id="Path_2483" data-name="Path 2483" d="M61.37,23.8a9.032,9.032,0,0,1,2.727-.6c.107.128-1.47,1.044-2.13,1.3Z" transform="translate(68.767 26.022)" fill="url(#linear-gradient-47)"/>
      <path id="Path_2484" data-name="Path 2484" d="M61.94,24.5a9.309,9.309,0,0,1,2.663-.7c.128.128-1.406,1.086-2.024,1.385Z" transform="translate(69.412 26.7)" fill="url(#linear-gradient-48)"/>
      <path id="Path_2485" data-name="Path 2485" d="M62.55,25.168a9.054,9.054,0,0,1,2.6-.788c.149.128-1.3,1.15-1.9,1.449Z" transform="translate(70.101 27.356)" fill="url(#linear-gradient-49)"/>
      <path id="Path_2486" data-name="Path 2486" d="M63.21,25.835a9.331,9.331,0,0,1,2.535-.895c.149.128-1.214,1.193-1.789,1.513Z" transform="translate(70.847 27.989)" fill="url(#linear-gradient-50)"/>
      <path id="Path_2487" data-name="Path 2487" d="M63.92,26.46a8.521,8.521,0,0,1,2.45-.98c.17.107-1.108,1.236-1.662,1.576Z" transform="translate(71.65 28.599)" fill="url(#linear-gradient-51)"/>
      <path id="Path_2488" data-name="Path 2488" d="M64.67,27.055a7.989,7.989,0,0,1,2.386-1.065c.149.128-1.023,1.278-1.555,1.64Z" transform="translate(72.497 29.176)" fill="url(#linear-gradient-52)"/>
      <path id="Path_2489" data-name="Path 2489" d="M65.46,27.61a7.371,7.371,0,0,1,2.3-1.15c.17.107-.937,1.3-1.427,1.683Z" transform="translate(73.39 29.707)" fill="url(#linear-gradient-53)"/>
      <path id="Path_2490" data-name="Path 2490" d="M66.29,28.154a7.094,7.094,0,0,1,2.13-1.214c.17,0-.831,1.321-1.3,1.726Z" transform="translate(74.328 30.25)" fill="url(#linear-gradient-54)"/>
      <path id="Path_2491" data-name="Path 2491" d="M67.16,28.689a6.391,6.391,0,0,1,2.13-1.3c.17,0-.724,1.363-1.172,1.768Z" transform="translate(75.312 30.758)" fill="url(#linear-gradient-55)"/>
      <path id="Path_2492" data-name="Path 2492" d="M68.06,29.133a6.391,6.391,0,0,1,2-1.363c.192,0-.618,1.385-1.023,1.811Z" transform="translate(76.329 31.188)" fill="url(#linear-gradient-56)"/>
      <path id="Path_2493" data-name="Path 2493" d="M69,29.57c.383-.426,1.7-1.513,1.9-1.427s-.511,1.406-.873,1.832Z" transform="translate(77.391 31.603)" fill="url(#linear-gradient-57)"/>
      <path id="Path_2494" data-name="Path 2494" d="M70,29.984c.341-.447,1.6-1.576,1.789-1.513s-.4,1.427-.746,1.9Z" transform="translate(78.522 31.978)" fill="url(#linear-gradient-58)"/>
      <path id="Path_2495" data-name="Path 2495" d="M70.94,30.358c.32-.469,1.47-1.64,1.683-1.576s-.3,1.427-.6,1.9Z" transform="translate(79.584 32.328)" fill="url(#linear-gradient-59)"/>
      <path id="Path_2496" data-name="Path 2496" d="M72,30.67c.256-.469,1.321-1.683,1.534-1.619s-.17,1.449-.426,1.917Z" transform="translate(80.782 32.633)" fill="url(#linear-gradient-60)"/>
      <path id="Path_2497" data-name="Path 2497" d="M73,30.963c.234-.469,1.214-1.726,1.427-1.683s0,1.449-.3,1.939Z" transform="translate(81.913 32.894)" fill="url(#linear-gradient-61)"/>
      <path id="Path_2498" data-name="Path 2498" d="M74.05,31.227c.192-.49,1.065-1.768,1.278-1.747s0,1.449-.149,1.96Z" transform="translate(83.099 33.12)" fill="url(#linear-gradient-62)"/>
      <path id="Path_2499" data-name="Path 2499" d="M75.12,31.419c.149-.49.916-1.811,1.15-1.768s.149,1.449,0,1.939Z" transform="translate(84.309 33.312)" fill="url(#linear-gradient-63)"/>
      <path id="Path_2500" data-name="Path 2500" d="M76.2,31.591c.128-.49.788-1.832,1.023-1.811s.256,1.427.149,1.939Z" transform="translate(85.53 33.459)" fill="url(#linear-gradient-64)"/>
      <path id="Path_2501" data-name="Path 2501" d="M77.29,31.723a3.424,3.424,0,0,1,.873-1.853c.213,0,.383,1.427.3,1.939Z" transform="translate(86.762 33.561)" fill="url(#linear-gradient-65)"/>
      <path id="Path_2502" data-name="Path 2502" d="M78.39,31.8c0-.511.511-1.9.724-1.875s.49,1.406.447,1.917Z" transform="translate(88.005 33.629)" fill="url(#linear-gradient-66)"/>
      <path id="Path_2503" data-name="Path 2503" d="M79.49,31.857c0-.511.362-1.9.6-1.917s.6,1.406.6,1.917Z" transform="translate(89.248 33.64)" fill="url(#linear-gradient-67)"/>
      <path id="Path_2504" data-name="Path 2504" d="M80.6,31.847c0-.511.213-1.917.426-1.917s.7,1.363.746,1.875Z" transform="translate(90.503 33.629)" fill="url(#linear-gradient-68)"/>
      <path id="Path_2505" data-name="Path 2505" d="M81.7,31.809c0-.511,0-1.917.3-1.939s.788,1.342.873,1.853Z" transform="translate(91.746 33.561)" fill="url(#linear-gradient-69)"/>
      <path id="Path_2506" data-name="Path 2506" d="M82.813,31.719a4.226,4.226,0,0,1,.149-1.939,4.936,4.936,0,0,1,1.023,1.811Z" transform="translate(92.955 33.459)" fill="url(#linear-gradient-70)"/>
      <path id="Path_2507" data-name="Path 2507" d="M83.953,31.589c-.149-.49-.213-1.9,0-1.939s1,1.278,1.15,1.768Z" transform="translate(94.138 33.312)" fill="url(#linear-gradient-71)"/>
      <path id="Path_2508" data-name="Path 2508" d="M85.136,31.441c-.192-.511-.383-1.9-.149-1.96s1.086,1.257,1.278,1.747Z" transform="translate(95.34 33.119)" fill="url(#linear-gradient-72)"/>
      <path id="Path_2509" data-name="Path 2509" d="M86.2,31.22c-.234-.49-.511-1.875-.3-1.939s1.193,1.214,1.427,1.683Z" transform="translate(96.408 32.893)" fill="url(#linear-gradient-73)"/>
      <path id="Path_2510" data-name="Path 2510" d="M87.346,31.019c-.277-.469-.66-1.853-.469-1.917s1.3,1.15,1.555,1.64Z" transform="translate(97.54 32.69)" fill="url(#linear-gradient-74)"/>
      <path id="Path_2511" data-name="Path 2511" d="M88.429,30.677c-.3-.469-.788-1.832-.6-1.9s1.363,1.108,1.683,1.576Z" transform="translate(98.629 32.328)" fill="url(#linear-gradient-75)"/>
      <path id="Path_2512" data-name="Path 2512" d="M89.519,30.368c-.341-.469-.959-1.811-.746-1.9s1.449,1.065,1.789,1.513Z" transform="translate(99.692 31.977)" fill="url(#linear-gradient-76)"/>
      <path id="Path_2513" data-name="Path 2513" d="M90.562,29.986c-.362-.447-1.086-1.768-.895-1.853s1.534,1,1.917,1.449Z" transform="translate(100.715 31.592)" fill="url(#linear-gradient-77)"/>
      <path id="Path_2514" data-name="Path 2514" d="M91.558,29.581c-.4-.426-1.214-1.726-1.023-1.811a6.817,6.817,0,0,1,2.024,1.385Z" transform="translate(101.7 31.188)" fill="url(#linear-gradient-78)"/>
      <path id="Path_2515" data-name="Path 2515" d="M92.573,29.138c-.447-.4-1.342-1.683-1.172-1.768a7.179,7.179,0,0,1,2.13,1.3Z" transform="translate(102.687 30.736)" fill="url(#linear-gradient-79)"/>
      <path id="Path_2516" data-name="Path 2516" d="M93.52,28.666c-.469-.4-1.47-1.64-1.3-1.726a6.8,6.8,0,0,1,2.13,1.236Z" transform="translate(103.615 30.25)" fill="url(#linear-gradient-80)"/>
      <path id="Path_2517" data-name="Path 2517" d="M94.437,28.163c-.49-.383-1.6-1.576-1.427-1.683a7.371,7.371,0,0,1,2.3,1.15Z" transform="translate(104.509 29.73)" fill="url(#linear-gradient-81)"/>
      <path id="Path_2518" data-name="Path 2518" d="M95.312,27.63c-.533-.362-1.7-1.513-1.555-1.64a7.989,7.989,0,0,1,2.386,1.065Z" transform="translate(105.359 29.176)" fill="url(#linear-gradient-82)"/>
      <path id="Path_2519" data-name="Path 2519" d="M96.138,27.056c-.554-.341-1.811-1.449-1.662-1.576a8.522,8.522,0,0,1,2.45.98Z" transform="translate(106.174 28.599)" fill="url(#linear-gradient-83)"/>
      <path id="Path_2520" data-name="Path 2520" d="M96.955,26.441c-.575-.32-1.939-1.385-1.789-1.491a8.287,8.287,0,0,1,2.535.873Z" transform="translate(106.954 28)" fill="url(#linear-gradient-84)"/>
      <path id="Path_2521" data-name="Path 2521" d="M97.679,25.817c-.6-.3-2.13-1.321-1.9-1.427a8.1,8.1,0,0,1,2.6.767Z" transform="translate(107.637 27.367)" fill="url(#linear-gradient-85)"/>
      <path id="Path_2522" data-name="Path 2522" d="M98.43,25.185A9.891,9.891,0,0,1,96.3,23.8a9.309,9.309,0,0,1,2.663.7Z" transform="translate(108.249 26.7)" fill="url(#linear-gradient-86)"/>
      <path id="Path_2523" data-name="Path 2523" d="M99.02,24.5a9.009,9.009,0,0,1-2.13-1.3,9.757,9.757,0,0,1,2.727.6Z" transform="translate(108.915 26.022)" fill="url(#linear-gradient-87)"/>
      <path id="Path_2524" data-name="Path 2524" d="M99.56,23.794a6.966,6.966,0,0,1-2.13-1.214,9.992,9.992,0,0,1,2.748.511Z" transform="translate(109.526 25.321)" fill="url(#linear-gradient-88)"/>
      <path id="Path_2525" data-name="Path 2525" d="M100.143,23.09c-.682-.213-2.407-1-2.3-1.15a9.373,9.373,0,0,1,2.769.4Z" transform="translate(109.987 24.598)" fill="url(#linear-gradient-89)"/>
      <path id="Path_2526" data-name="Path 2526" d="M100.637,22.337a7.754,7.754,0,0,1-2.407-1.044,10.289,10.289,0,0,1,2.812.3Z" transform="translate(110.43 23.861)" fill="url(#linear-gradient-90)"/>
      <path id="Path_2527" data-name="Path 2527" d="M101.051,21.613a8.372,8.372,0,0,1-2.471-.98,9.735,9.735,0,0,1,2.833.213Z" transform="translate(110.826 23.093)" fill="url(#linear-gradient-91)"/>
      <path id="Path_2528" data-name="Path 2528" d="M101.426,20.876A8.756,8.756,0,0,1,98.87,20a10.289,10.289,0,0,1,2.855,0Z" transform="translate(111.153 22.296)" fill="url(#linear-gradient-92)"/>
      <path id="Path_2529" data-name="Path 2529" d="M101.73,20.1a8.99,8.99,0,0,1-2.62-.788,10.332,10.332,0,0,1,2.855,0Z" transform="translate(111.425 21.516)" fill="url(#linear-gradient-93)"/>
      <path id="Path_2530" data-name="Path 2530" d="M101.963,19.341A9.884,9.884,0,0,1,99.3,18.66a9.4,9.4,0,0,1,2.855-.107Z" transform="translate(111.639 20.699)" fill="url(#linear-gradient-94)"/>
      <path id="Path_2531" data-name="Path 2531" d="M102.145,18.6A9.949,9.949,0,0,1,99.44,18a9.075,9.075,0,0,1,2.833-.213Z" transform="translate(111.798 19.869)" fill="url(#linear-gradient-95)"/>
      <path id="Path_2532" data-name="Path 2532" d="M102.268,17.811a9.8,9.8,0,0,1-2.748-.49,10.4,10.4,0,0,1,2.812-.3Z" transform="translate(111.888 19.034)" fill="url(#linear-gradient-96)"/>
      <path id="Path_2533" data-name="Path 2533" d="M102.352,17.058a9.5,9.5,0,0,1-2.812-.4,10.46,10.46,0,0,1,2.812-.383Z" transform="translate(111.911 18.189)" fill="url(#linear-gradient-97)"/>
      <path id="Path_2534" data-name="Path 2534" d="M102.332,16.32a10.4,10.4,0,0,1-2.812-.3,9.48,9.48,0,0,1,2.748-.511Z" transform="translate(111.888 17.33)" fill="url(#linear-gradient-98)"/>
      <path id="Path_2535" data-name="Path 2535" d="M102.273,15.57a9.8,9.8,0,0,1-2.833-.213,9.949,9.949,0,0,1,2.705-.6Z" transform="translate(111.798 16.483)" fill="url(#linear-gradient-99)"/>
      <path id="Path_2536" data-name="Path 2536" d="M102.155,14.763a11.291,11.291,0,0,1-2.855,0,8.99,8.99,0,0,1,2.663-.7Z" transform="translate(111.639 15.691)" fill="url(#linear-gradient-100)"/>
      <path id="Path_2537" data-name="Path 2537" d="M101.965,14.068a10.353,10.353,0,0,1-2.855,0,8.989,8.989,0,0,1,2.62-.788Z" transform="translate(111.425 14.81)" fill="url(#linear-gradient-101)"/>
      <path id="Path_2538" data-name="Path 2538" d="M101.725,13.317a9.693,9.693,0,0,1-2.855.107,8.521,8.521,0,0,1,2.556-.873Z" transform="translate(111.153 13.985)" fill="url(#linear-gradient-102)"/>
      <path id="Path_2539" data-name="Path 2539" d="M101.413,12.6a11.482,11.482,0,0,1-2.833.213,7.818,7.818,0,0,1,2.471-.98Z" transform="translate(110.826 13.171)" fill="url(#linear-gradient-103)"/>
      <path id="Path_2540" data-name="Path 2540" d="M101.042,11.887a10.14,10.14,0,0,1-2.812.3,8.2,8.2,0,0,1,2.407-1.065Z" transform="translate(110.43 12.368)" fill="url(#linear-gradient-104)"/>
      <path id="Path_2541" data-name="Path 2541" d="M100.609,11.154a10.374,10.374,0,0,1-2.769.426,8.645,8.645,0,0,1,2.3-1.15Z" transform="translate(109.989 11.588)" fill="url(#linear-gradient-105)"/>
      <path id="Path_2542" data-name="Path 2542" d="M100.138,10.463a9.991,9.991,0,0,1-2.748.511A9.289,9.289,0,0,1,99.52,9.76Z" transform="translate(109.481 10.831)" fill="url(#linear-gradient-106)"/>
      <path id="Path_2543" data-name="Path 2543" d="M99.608,9.782A9.842,9.842,0,0,1,96.9,10.4c-.107-.149,1.47-1.044,2.13-1.3Z" transform="translate(108.924 10.085)" fill="url(#linear-gradient-107)"/>
      <path id="Path_2544" data-name="Path 2544" d="M99.013,9.142a9.885,9.885,0,0,1-2.663.7A7.243,7.243,0,0,1,98.48,8.46Z" transform="translate(108.305 9.362)" fill="url(#linear-gradient-108)"/>
      <path id="Path_2545" data-name="Path 2545" d="M98.383,8.5a8.883,8.883,0,0,1-2.6.788c-.128-.128,1.3-1.129,1.917-1.449Z" transform="translate(107.657 8.661)" fill="url(#linear-gradient-109)"/>
      <path id="Path_2546" data-name="Path 2546" d="M97.681,7.844a8.287,8.287,0,0,1-2.535.959A7.751,7.751,0,0,1,96.935,7.29Z" transform="translate(106.931 8.039)" fill="url(#linear-gradient-110)"/>
      <path id="Path_2547" data-name="Path 2547" d="M96.926,7.316a8.522,8.522,0,0,1-2.45.98c-.149-.128,1.129-1.236,1.662-1.576Z" transform="translate(106.174 7.395)" fill="url(#linear-gradient-111)"/>
      <path id="Path_2548" data-name="Path 2548" d="M96.133,6.725a7.755,7.755,0,0,1-2.365,1.044c-.17,0,1.023-1.257,1.555-1.619Z" transform="translate(105.369 6.751)" fill="url(#linear-gradient-112)"/>
      <path id="Path_2549" data-name="Path 2549" d="M95.308,6.173a7.626,7.626,0,0,1-2.3,1.15A6.112,6.112,0,0,1,94.435,5.64Z" transform="translate(104.511 6.174)" fill="url(#linear-gradient-113)"/>
      <path id="Path_2550" data-name="Path 2550" d="M94.391,5.661A7.413,7.413,0,0,1,92.26,6.9c-.17,0,.831-1.342,1.3-1.747Z" transform="translate(103.661 5.62)" fill="url(#linear-gradient-114)"/>
      <path id="Path_2551" data-name="Path 2551" d="M93.531,5.179a7.179,7.179,0,0,1-2.13,1.3c-.17,0,.746-1.363,1.172-1.768Z" transform="translate(102.688 5.123)" fill="url(#linear-gradient-115)"/>
      <path id="Path_2552" data-name="Path 2552" d="M92.579,4.716A6.562,6.562,0,0,1,90.555,6.1c-.192,0,.618-1.385,1.023-1.811Z" transform="translate(101.723 4.648)" fill="url(#linear-gradient-116)"/>
      <path id="Path_2553" data-name="Path 2553" d="M91.573,4.3c-.362.447-1.7,1.534-1.9,1.449s.511-1.406.895-1.853Z" transform="translate(100.726 4.208)" fill="url(#linear-gradient-117)"/>
      <path id="Path_2554" data-name="Path 2554" d="M90.563,3.912c-.341.447-1.576,1.6-1.789,1.513s.4-1.427.746-1.875Z" transform="translate(99.692 3.812)" fill="url(#linear-gradient-118)"/>
      <path id="Path_2555" data-name="Path 2555" d="M89.52,3.571c-.3.469-1.47,1.64-1.683,1.576s.3-1.427.618-1.917Z" transform="translate(98.626 3.45)" fill="url(#linear-gradient-119)"/>
      <path id="Path_2556" data-name="Path 2556" d="M88.447,3.237c-.277.469-1.342,1.683-1.555,1.64s.192-1.449.447-1.917Z" transform="translate(97.547 3.145)" fill="url(#linear-gradient-120)"/>
      <path id="Path_2557" data-name="Path 2557" d="M87.358,2.966c-.234.49-1.193,1.726-1.427,1.683s0-1.449.32-1.939Z" transform="translate(96.42 2.862)" fill="url(#linear-gradient-121)"/>
      <path id="Path_2558" data-name="Path 2558" d="M86.216,2.7c-.17.511-1.065,1.789-1.278,1.747s0-1.449.149-1.939Z" transform="translate(95.304 2.636)" fill="url(#linear-gradient-122)"/>
      <path id="Path_2559" data-name="Path 2559" d="M85.125,2.51c-.17.49-.937,1.811-1.172,1.789s-.128-1.449,0-1.96Z" transform="translate(94.137 2.444)" fill="url(#linear-gradient-123)"/>
      <path id="Path_2560" data-name="Path 2560" d="M83.985,2.327c0,.511-.788,1.853-1,1.832s-.277-1.449-.149-1.939Z" transform="translate(92.955 2.309)" fill="url(#linear-gradient-124)"/>
      <path id="Path_2561" data-name="Path 2561" d="M82.88,2.215c0,.49-.639,1.853-.873,1.853s-.362-1.427-.3-1.939Z" transform="translate(91.737 2.207)" fill="url(#linear-gradient-125)"/>
      <path id="Path_2562" data-name="Path 2562" d="M81.774,2.123c0,.511-.49,1.875-.724,1.875S80.56,2.591,80.6,2.08Z" transform="translate(90.5 2.15)" fill="url(#linear-gradient-126)"/>
      <path id="Path_2563" data-name="Path 2563" d="M80.672,2.07c0,.511-.362,1.9-.6,1.9S79.5,2.581,79.5,2.07Z" transform="translate(89.26 2.139)" fill="url(#linear-gradient-127)"/>
      <path id="Path_2564" data-name="Path 2564" d="M79.272,30.279l22.9-21.729h9.267v.682c-5.262.575-5.624,1.023-5.454,6.391l.554,17.554c.17,5.411.362,5.794,5.688,6.391v.682H94.76v-.7c5.091-.6,5.283-.98,5.219-6.391l-.17-18.6h-.234L77.76,36.137Z" transform="translate(87.293 9.463)" fill="#f9dda7"/>
      <path id="Path_2565" data-name="Path 2565" d="M92.273,36.137h-.66l-17.831-21.3h-.17l-.554,12.4a40.815,40.815,0,0,0,.3,9.267c.362,1.811,1.832,2.492,5.773,2.982v.682H64.92v-.618c3.387-.447,4.6-1.172,5.219-2.982A44.224,44.224,0,0,0,71.481,27.3L72.1,17.071c.362-6.391,0-7.264-5.709-7.839V8.55H76.551L93.871,30.279Z" transform="translate(72.78 9.463)" fill="#f9dda7"/>
      <path id="Path_2566" data-name="Path 2566" d="M83.916,30.694V13.651c0-5.539.618-6.157,6.71-6.71V6.11H70.58v.724c6.391.554,7.009,1.172,7.009,6.71V40.919c0,5.539-.6,6.157-6.625,6.71v.724H91.01v-.724c-6.391-.554-7.094-1.172-7.094-6.71V30.694Z" transform="translate(79.177 6.705)" fill="#f9dda7"/>
      <path id="Path_2567" data-name="Path 2567" d="M107.164,48.96a58.154,58.154,0,0,1-6.71-5.986c-2.407-2.535-15.061-16.51-17.042-19C88.63,19.03,95.128,12.681,97.173,10.807a10.225,10.225,0,0,1,8.1-3.984v-.7H89.205v.7h.426c4.793,0,5.283,1.832,4.261,3.046-2.13,2.855-16.361,16.254-16.382,16.275S87.842,37.031,90.292,40.162a65.546,65.546,0,0,0,6.732,7.222,17.383,17.383,0,0,0,11.7,4.538h4.58V51.3a12.313,12.313,0,0,1-6.135-2.343Z" transform="translate(87.01 6.717)" fill="#f9dda7"/>
      <path id="Path_2568" data-name="Path 2568" d="M90.67,13.68l-11.4,10.8L77.76,30.339,94.611,13.68Z" transform="translate(87.293 15.262)" fill="#f9dda7"/>
      <path id="Path_2569" data-name="Path 2569" d="M79.859,30.75,102.632,9h9.288v.682c-5.283.6-5.645,1.023-5.454,6.391L107,33.626c.192,5.39.362,5.794,5.709,6.391V40.7H95.24v-.682c5.091-.575,5.262-.98,5.219-6.391l-.192-18.6h-.234L78.24,36.694Z" transform="translate(87.835 9.972)"/>
      <path id="Path_2570" data-name="Path 2570" d="M92.764,36.694h-.682l-17.809-21.3h-.128l-.554,12.42a39.538,39.538,0,0,0,.3,9.267c.362,1.789,1.811,2.471,5.752,2.961v.682H65.39v-.682c3.408-.426,4.623-1.172,5.219-2.961a42.6,42.6,0,0,0,1.278-9.267l.6-10.225c.362-6.391,0-7.264-5.688-7.861V9H76.957L94.383,30.75Z" transform="translate(73.311 9.972)"/>
      <path id="Path_2571" data-name="Path 2571" d="M84.407,31.132V14.09c0-5.517.6-6.135,6.71-6.71V6.57H71.05v.7c6.391.575,7.03,1.193,7.03,6.71v27.4c0,5.517-.618,6.157-6.647,6.71v.724H91.5v-.724c-6.5-.554-7.094-1.193-7.094-6.71Z" transform="translate(79.709 7.225)"/>
      <path id="Path_2572" data-name="Path 2572" d="M107.6,49.432a64.849,64.849,0,0,1-6.71-6.007c-2.386-2.514-15.061-16.51-17.042-19C89.066,19.5,95.585,13.131,97.63,11.257a10.14,10.14,0,0,1,8.053-3.962V6.57H89.705v.724h.426c4.814,0,5.3,1.853,4.261,3.068C92.262,13.2,78.053,26.595,78.01,26.616S88.342,37.523,90.792,40.633a67.7,67.7,0,0,0,6.9,7.328,17.341,17.341,0,0,0,11.7,4.559h4.58V51.9a12.1,12.1,0,0,1-6.37-2.471Z" transform="translate(87.575 7.225)"/>
      <path id="Path_2573" data-name="Path 2573" d="M100.53,29.587v-.618a12.1,12.1,0,0,1-6.391-2.279h-.107A31.7,31.7,0,0,1,89.9,28.671a17.17,17.17,0,0,0,6.029,1.086C98.315,29.672,99.614,29.651,100.53,29.587Z" transform="translate(101.015 29.967)" fill="#d19526"/>
      <path id="Path_2574" data-name="Path 2574" d="M91.128,14.13,79.753,24.952,78.24,30.81,95.091,14.13Z" transform="translate(87.835 15.77)"/>
      <path id="Path_2575" data-name="Path 2575" d="M79.512,30.563l22.9-21.793h9.267v.7c-5.283.575-5.645,1-5.454,6.391l.533,17.554c.192,5.411.383,5.794,5.709,6.391v.682H95.042v-.682c5.091-.575,5.283-.959,5.219-6.391l-.17-18.6h-.256L78,36.379Z" transform="translate(87.564 9.712)" fill="url(#linear-gradient-128)"/>
      <path id="Path_2576" data-name="Path 2576" d="M88.4,22.89l1.555,1.6-1.662.085-.895-1.15Z" transform="translate(98.189 25.672)" fill="#d19526"/>
      <path id="Path_2577" data-name="Path 2577" d="M92.513,36.379h-.66l-17.831-21.3h-.128L73.34,27.538a39.538,39.538,0,0,0,.3,9.267C74,38.594,75.471,39.3,79.39,39.766v.682H65.16v-.682c3.387-.426,4.6-1.172,5.2-2.961a42.329,42.329,0,0,0,1.278-9.267l.618-10.225c.362-6.391,0-7.264-5.709-7.839v-.7H76.706L94.026,30.563Z" transform="translate(73.051 9.712)" fill="url(#linear-gradient-129)"/>
      <path id="Path_2578" data-name="Path 2578" d="M78.242,26.88V18.231L76.857,16.25H76.41v8.2Z" transform="translate(85.767 18.167)" fill="#7e4f0d"/>
      <path id="Path_2579" data-name="Path 2579" d="M73.98,12.59V23.05l.788,1.065h.554V14.529Z" transform="translate(83.02 14.03)" fill="#f9dda7"/>
      <path id="Path_2580" data-name="Path 2580" d="M84.156,30.924V13.881c0-5.539.618-6.157,6.71-6.71V6.34H70.82v.724c6.391.554,7.009,1.172,7.009,6.71V41.149c0,5.539-.6,6.157-6.647,6.71v.724H91.25v-.724c-6.391-.554-7.094-1.172-7.094-6.71V30.924Z" transform="translate(79.449 6.965)" fill="url(#linear-gradient-130)"/>
      <path id="Path_2581" data-name="Path 2581" d="M107.349,49.19a64.845,64.845,0,0,1-6.71-6.007C98.252,40.669,85.577,26.694,83.6,24.2c5.3-4.942,11.7-11.291,13.826-13.165a10.183,10.183,0,0,1,8.1-3.984v-.7H89.475v.7h.4c4.814,0,5.3,1.853,4.261,3.068C92.01,12.975,77.8,26.353,77.78,26.375S88.091,37.282,90.562,40.392a70.916,70.916,0,0,0,6.86,7.243,17.426,17.426,0,0,0,11.7,4.538h4.58v-.6a12.377,12.377,0,0,1-6.348-2.386Z" transform="translate(87.315 6.977)" fill="url(#linear-gradient-131)"/>
      <path id="Path_2582" data-name="Path 2582" d="M81.35,21.539l3.664-4.111L83.736,16,79.71,19.792Z" transform="translate(89.497 17.884)" fill="#f5cb73"/>
      <path id="Path_2583" data-name="Path 2583" d="M83.91,16.46l-3.6,4.069c.447.511.98,1.044,1.363,1.491l3.877-3.813Z" transform="translate(90.175 18.404)" fill="#7e4f0d"/>
      <path id="Path_2584" data-name="Path 2584" d="M90.91,13.91l-11.4,10.8L78,30.569,94.851,13.91Z" transform="translate(87.564 15.522)" fill="url(#linear-gradient-132)"/>
    </g>
  </g>
</svg>
